<svg width="42" height="42" viewBox="0 0 42 42" fill="none" xmlns="http://www.w3.org/2000/svg">
<circle cx="21" cy="21" r="21" fill="#F37E3C"/>
<path d="M28.7968 29.324C28.7968 28.6443 28.2467 28.0942 27.567 28.0942H13.4784C12.7987 28.0942 12.2487 28.6443 12.2487 29.324C12.2487 30.0037 12.7987 30.5538 13.4784 30.5538H27.567C28.2467 30.5538 28.7968 30.0015 28.7968 29.324Z" fill="white"/>
<path d="M11.0077 19.3698C11.0278 19.3698 11.0457 19.3698 11.0659 19.3675L13.0156 26.4241H20.5238H28.0299L29.9796 19.3675C29.9997 19.3675 30.0176 19.3698 30.0377 19.3698C30.8449 19.3698 31.5 18.7147 31.5 17.9075C31.5 17.1003 30.8449 16.4452 30.0377 16.4452C29.2306 16.4452 28.5754 17.1003 28.5754 17.9075C28.5754 18.064 28.6 18.216 28.647 18.3569L25.1209 20.4184L21.331 14.1355C21.7246 13.8739 21.9862 13.4244 21.9862 12.9169C21.9862 12.1097 21.331 11.4546 20.5239 11.4546C19.7167 11.4546 19.0616 12.1097 19.0616 12.9169C19.0616 13.4267 19.321 13.8739 19.7167 14.1355L15.9268 20.4184L12.4008 18.3569C12.4455 18.216 12.4723 18.064 12.4723 17.9075C12.4723 17.1003 11.8172 16.4452 11.01 16.4452C10.2006 16.4452 9.54547 17.1003 9.54547 17.9075C9.54547 18.7147 10.2006 19.3698 11.0077 19.3698Z" fill="white"/>
</svg>
