<svg width="59" height="60" viewBox="0 0 59 60" fill="none" xmlns="http://www.w3.org/2000/svg">
<rect width="48" height="48" rx="6" transform="matrix(0.965926 0.25882 -0.258818 0.965926 12.4233 0.606201)" fill="#F5F4F6"/>
<path fill-rule="evenodd" clip-rule="evenodd" d="M40.3005 20.8443C42.1676 21.3446 43.2757 23.2638 42.7754 25.1309L40.9636 31.8924C40.4633 33.7595 38.5442 34.8675 36.677 34.3673L35.1208 33.9503L29.6315 40.139C28.8037 41.0725 27.5463 41.4905 26.3337 41.2504L26.1069 41.1976L25.8095 41.1179C24.3158 40.7177 23.4051 39.2277 23.7035 37.7326L23.7471 37.5457L25.4079 31.3477L20.9022 30.1404C20.6796 30.0808 20.4634 29.9993 20.2568 29.8971C18.5859 29.071 17.8659 27.0895 18.5848 25.3954L18.6706 25.2084L21.8347 18.8093C22.5433 17.376 24.1271 16.6131 25.6762 16.932L25.878 16.9798L40.3005 20.8443ZM36.154 31.8115L37.2809 32.1134C37.9033 32.2802 38.543 31.9108 38.7098 31.2885L40.5216 24.527C40.6883 23.9046 40.319 23.2649 39.6966 23.0981L38.5697 22.7962L36.154 31.8115ZM26.4134 38.8641L26.7109 38.9438C27.0903 39.0454 27.4918 38.9488 27.7823 38.6938L27.8857 38.5909L33.4868 32.2745C33.5769 32.1729 33.6484 32.0565 33.6982 31.9309L33.7408 31.8024L36.3159 22.1923L25.2741 19.2336C24.7817 19.1017 24.2666 19.3052 23.9943 19.724L23.9263 19.8435L20.7623 26.2426C20.4767 26.8202 20.7134 27.5199 21.291 27.8055L21.3965 27.8514L21.5061 27.8866L26.0118 29.0939C27.2 29.4123 27.9271 30.5925 27.7006 31.7818L27.6617 31.9516L26.001 38.1496C25.9268 38.4262 26.0645 38.7097 26.3146 38.8279L26.4134 38.8641Z" fill="#736C7D"/>
</svg>
