<svg width="84" height="84" viewBox="0 0 84 84" fill="none" xmlns="http://www.w3.org/2000/svg">
<path d="M33.5495 9.67772H23.98C22.0298 9.67772 20.4433 8.08385 20.4433 6.12462C20.4433 4.16555 22.03 2.57152 23.98 2.57152H27.3071C28.0173 2.57152 28.5928 1.99598 28.5928 1.28576C28.5928 0.575531 28.0173 0 27.3071 0H23.98C20.6122 0 17.8718 2.74739 17.8718 6.12445C17.8718 9.50168 20.612 12.2487 23.98 12.2487H33.5495C35.0687 12.2487 36.3047 13.4907 36.3047 15.0175V17.6498C36.3047 18.3601 36.8803 18.9356 37.5905 18.9356C38.3007 18.9356 38.8763 18.3601 38.8763 17.6498V15.0178C38.8761 12.0732 36.4867 9.67772 33.5495 9.67772Z" fill="#B06345"/>
<path d="M33.0025 0H31.1031C30.3929 0 29.8174 0.575531 29.8174 1.28576C29.8174 1.99598 30.3929 2.57152 31.1031 2.57152H33.0025C33.7006 2.57152 34.2685 3.1395 34.2685 3.83759C34.2684 4.53567 33.7006 5.10366 33.0025 5.10366H28.8742C28.1639 5.10366 27.5884 5.67919 27.5884 6.38941C27.5884 7.09964 28.1639 7.67517 28.8742 7.67517H33.0025C35.1184 7.67517 36.8399 5.95366 36.8399 3.83775C36.8397 1.72151 35.1182 0 33.0025 0Z" fill="#B06345"/>
<path d="M26.6398 48.0522C22.9212 48.0522 19.8959 51.0858 19.8959 54.8147C19.8959 58.5437 22.921 61.5772 26.6398 61.5772C27.3501 61.5772 27.9256 61.0017 27.9256 60.2915C27.9256 59.5812 27.3501 59.0057 26.6398 59.0057C24.339 59.0057 22.4672 57.1255 22.4672 54.8146C22.4672 52.5037 24.339 50.6234 26.6398 50.6234C28.9408 50.6234 30.8128 52.5036 30.8128 54.8146C30.8128 55.5248 31.3883 56.1003 32.0985 56.1003C32.8087 56.1003 33.3843 55.5248 33.3843 54.8146C33.3841 51.0859 30.3588 48.0522 26.6398 48.0522Z" fill="#B06345"/>
<path d="M72.3701 52.2857H63.7716C63.0614 52.2857 62.4858 52.8612 62.4858 53.5714C62.4858 54.2817 63.0614 54.8572 63.7716 54.8572H67.139V55.9715H60.3258C59.6155 55.9715 59.04 56.5471 59.04 57.2573C59.04 57.9675 59.6155 58.543 60.3258 58.543H67.1386V60.0859H62.0855C61.3753 60.0859 60.7997 60.6614 60.7997 61.3716C60.7997 62.0819 61.3753 62.6574 62.0855 62.6574H67.1386V69.0002C67.1386 72.458 65.249 75.4807 62.4497 77.0962H41.1419C38.3427 75.4807 36.453 72.4578 36.453 69.0002V54.8574H55.3716H57.7716C58.4819 54.8574 59.0574 54.2818 59.0574 53.5716C59.0574 52.8614 58.4819 52.2859 57.7716 52.2859H55.3716H46.3376L46.6546 48.4627C46.6843 48.1044 46.5627 47.75 46.3191 47.4857C46.0756 47.2212 45.7326 47.0706 45.3731 47.0706H45.191L46.3007 35.7897H46.7263C48.7645 35.7897 50.4225 34.1281 50.4225 32.0855V30.1507C50.4225 28.1081 48.7645 26.4463 46.7263 26.4463H45.4409V24.6686C45.4409 22.626 43.7829 20.9644 41.7447 20.9644H11.5346C9.49642 20.9644 7.83841 22.626 7.83841 24.6686V26.4463H6.55298C4.51483 26.4463 2.85681 28.1081 2.85681 30.1507V32.0855C2.85681 34.1281 4.51483 35.7897 6.55298 35.7897H6.97855L8.08827 47.0706H7.90633C7.54834 47.0706 7.20676 47.2198 6.96346 47.4823C6.72016 47.7446 6.59711 48.0967 6.62418 48.4534L7.73718 63.1404C7.78787 63.8109 8.347 64.329 9.01933 64.329H9.78566L11.3918 80.6591C11.579 82.5636 13.1604 84 15.07 84H67.3303C69.9305 84 72.0459 81.8844 72.0459 79.2841C72.0459 78.0776 71.0642 77.0959 69.8575 77.0959H66.5234C68.3215 75.1596 69.4862 72.6278 69.6803 69.8315H72.3699C77.2075 69.8315 81.143 65.896 81.143 61.0584C81.143 56.2212 77.2076 52.2857 72.3701 52.2857ZM39.2912 52.2857H37.923C37.7162 51.3584 37.401 50.4716 36.9869 49.642H39.4916L39.2912 52.2857ZM43.7573 52.2857H41.8701L42.0704 49.642H43.9763L43.7573 52.2857ZM6.5533 33.2182C5.93331 33.2182 5.42849 32.7099 5.42849 32.0853V30.1505C5.42849 29.5256 5.93298 29.0175 6.5533 29.0175H15.4286C16.1388 29.0175 16.7143 28.442 16.7143 27.7318C16.7143 27.0215 16.1388 26.446 15.4286 26.446H10.4101V24.6682C10.4101 24.0436 10.9146 23.5354 11.5349 23.5354H35.6801C35.8219 24.0912 36.3246 24.5029 36.9246 24.5029H38.3708C38.9707 24.5029 39.4734 24.0912 39.6152 23.5354H41.7455C42.3655 23.5354 42.8703 24.0436 42.8703 24.6682V26.446H21.2572C20.547 26.446 19.9715 27.0215 19.9715 27.7318C19.9715 28.442 20.547 29.0175 21.2572 29.0175H46.7263C47.3463 29.0175 47.8511 29.5258 47.8511 30.1505V32.0853C47.8511 32.7101 47.3466 33.2182 46.7263 33.2182H6.5533ZM10.2114 61.7575L9.29348 49.642H10.8988L11.8168 61.7575H10.2114ZM10.6721 47.0705L9.56237 35.7895H43.7167L42.607 47.0705H35.2408C33.1221 44.7057 30.0516 43.215 26.6395 43.215C23.2276 43.215 20.1572 44.7055 18.0385 47.0705H10.6721ZM35.2703 52.2857H35.1673C34.4571 52.2857 33.8815 52.8612 33.8815 53.5714V60.1587C32.2432 62.3914 29.6079 63.8431 26.6396 63.8431C21.6807 63.8431 17.6464 59.793 17.6464 54.8147C17.6464 49.8364 21.6809 45.7864 26.6396 45.7864C30.7243 45.7865 34.1783 48.5351 35.2703 52.2857ZM17.3811 61.7575H14.3958L13.4779 49.642H16.2934C15.5155 51.2006 15.0754 52.9567 15.0754 54.8149C15.0752 57.4164 15.9336 59.8203 17.3811 61.7575ZM31.3825 79.2841C31.3825 80.0561 31.5702 80.7847 31.9005 81.4286H15.07C14.4892 81.4286 14.0081 80.9897 13.9509 80.4075L13.5655 76.489H19.2001C19.9103 76.489 20.4858 75.9133 20.4858 75.2032C20.4858 74.493 19.9103 73.9175 19.2001 73.9175H13.3125L12.3693 64.3289H20.0356C21.9097 65.6415 24.1858 66.4144 26.6398 66.4144C29.0939 66.4144 31.3702 65.6415 33.2441 64.3289H33.8817V68.9999C33.8817 70.7529 34.2631 72.4178 34.9466 73.9173H25.0287C24.3185 73.9173 23.743 74.4929 23.743 75.2031C23.743 75.9132 24.3185 76.4888 25.0287 76.4888H36.5446C36.7129 76.6964 36.886 76.9002 37.0679 77.096H33.571C32.3643 77.096 31.3825 78.0776 31.3825 79.2841ZM69.4401 79.6674C69.2591 80.6675 68.3819 81.4284 67.3303 81.4284H36.0985C35.0469 81.4284 34.1695 80.6675 33.9882 79.6674H69.4401ZM72.3701 67.2603H69.7101V54.8572H72.3701C75.7896 54.8572 78.5717 57.6392 78.5717 61.0588C78.5717 64.4782 75.7895 67.2603 72.3701 67.2603Z" fill="#B06345"/>
</svg>
