<svg width="22" height="22" viewBox="0 0 22 22" fill="none" xmlns="http://www.w3.org/2000/svg">
<path fill-rule="evenodd" clip-rule="evenodd" d="M17.4167 11.9167C18.9355 11.9167 20.1667 13.1479 20.1667 14.6667V17.4167C20.1667 18.9355 18.9355 20.1667 17.4167 20.1667H14.6667C13.1479 20.1667 11.9167 18.9355 11.9167 17.4167V14.6667C11.9167 13.1479 13.1479 11.9167 14.6667 11.9167H17.4167ZM7.33334 11.9167C8.85212 11.9167 10.0833 13.1479 10.0833 14.6667V17.4167C10.0833 18.9355 8.85212 20.1667 7.33334 20.1667H4.58334C3.06455 20.1667 1.83334 18.9355 1.83334 17.4167V14.6667C1.83334 13.1479 3.06455 11.9167 4.58334 11.9167H7.33334ZM17.4167 13.75H14.6667C14.1604 13.75 13.75 14.1604 13.75 14.6667V17.4167C13.75 17.9229 14.1604 18.3333 14.6667 18.3333H17.4167C17.9229 18.3333 18.3333 17.9229 18.3333 17.4167V14.6667C18.3333 14.1604 17.9229 13.75 17.4167 13.75ZM7.33334 13.75H4.58334C4.07707 13.75 3.66667 14.1604 3.66667 14.6667V17.4167C3.66667 17.9229 4.07707 18.3333 4.58334 18.3333H7.33334C7.8396 18.3333 8.25 17.9229 8.25 17.4167V14.6667C8.25 14.1604 7.8396 13.75 7.33334 13.75ZM7.33334 1.83334C8.85212 1.83334 10.0833 3.06456 10.0833 4.58334V7.33334C10.0833 8.85213 8.85212 10.0833 7.33334 10.0833H4.58334C3.06455 10.0833 1.83334 8.85213 1.83334 7.33334V4.58334C1.83334 3.06456 3.06455 1.83334 4.58334 1.83334H7.33334ZM17.4167 1.83334C18.9355 1.83334 20.1667 3.06456 20.1667 4.58334V7.33334C20.1667 8.85213 18.9355 10.0833 17.4167 10.0833H14.6667C13.1479 10.0833 11.9167 8.85213 11.9167 7.33334V4.58334C11.9167 3.06456 13.1479 1.83334 14.6667 1.83334H17.4167ZM7.33334 3.66668H4.58334C4.07707 3.66668 3.66667 4.07708 3.66667 4.58334V7.33334C3.66667 7.8396 4.07707 8.25001 4.58334 8.25001H7.33334C7.8396 8.25001 8.25 7.8396 8.25 7.33334V4.58334C8.25 4.07708 7.8396 3.66668 7.33334 3.66668ZM17.4167 3.66668H14.6667C14.1604 3.66668 13.75 4.07708 13.75 4.58334V7.33334C13.75 7.8396 14.1604 8.25001 14.6667 8.25001H17.4167C17.9229 8.25001 18.3333 7.8396 18.3333 7.33334V4.58334C18.3333 4.07708 17.9229 3.66668 17.4167 3.66668Z" fill="#B06345"/>
</svg>
