<svg width="59" height="60" viewBox="0 0 59 60" fill="none" xmlns="http://www.w3.org/2000/svg">
<rect width="48" height="48" rx="6" transform="matrix(0.965926 -0.25882 0.258818 0.965926 0 13.0295)" fill="#F5F4F6"/>
<path fill-rule="evenodd" clip-rule="evenodd" d="M24.5251 43.3829C22.658 43.8832 20.7388 42.7751 20.2385 40.908L18.4268 34.1465C17.9265 32.2794 19.0345 30.3602 20.9016 29.8599L22.4579 29.4429L24.1173 21.3387C24.3675 20.1163 25.2474 19.1257 26.4177 18.7273L26.6404 18.6597L26.9378 18.58C28.4315 18.1797 29.9652 19.0147 30.4544 20.4587L30.51 20.6424L32.1708 26.8404L36.6765 25.6331C36.8991 25.5734 37.1271 25.5359 37.3571 25.5211C39.2172 25.4011 40.8314 26.7571 41.0559 28.5837L41.0751 28.7886L41.5345 35.9124C41.6374 37.508 40.6473 38.9606 39.1463 39.4589L38.9476 39.5184L24.5251 43.3829ZM22.6325 31.8118L21.5055 32.1138C20.8832 32.2805 20.5138 32.9202 20.6806 33.5426L22.4923 40.3041C22.6591 40.9265 23.2988 41.2958 23.9212 41.1291L25.0481 40.8271L22.6325 31.8118ZM27.5417 20.8338L27.2443 20.9135C26.8649 21.0152 26.5655 21.2996 26.4414 21.6656L26.4033 21.8065L24.7108 30.0772C24.6836 30.2103 24.6799 30.3467 24.6995 30.4805L24.7269 30.613L27.3019 40.2232L38.3437 37.2646C38.8361 37.1326 39.1804 36.6989 39.2068 36.2001L39.206 36.0626L38.7466 28.9388C38.7051 28.2958 38.1502 27.8081 37.5072 27.8496L37.3929 27.8627L37.2804 27.8869L32.7747 29.0942C31.5865 29.4126 30.3667 28.754 29.9682 27.6108L29.9169 27.4443L28.2562 21.2463C28.1821 20.9697 27.9211 20.793 27.6455 20.8157L27.5417 20.8338Z" fill="#736C7D"/>
</svg>
