<svg width="164" height="32" viewBox="0 0 164 32" fill="none" xmlns="http://www.w3.org/2000/svg">
<path d="M38.6191 24.9961C37.903 24.9961 37.2513 24.8242 36.6641 24.4805C36.0911 24.1367 35.597 23.6641 35.1816 23.0625C34.7806 22.4609 34.4727 21.7591 34.2578 20.957C34.0573 20.1406 33.9714 19.2741 34 18.3574C34.0286 17.498 34.1361 16.5671 34.3223 15.5645C34.5228 14.5618 34.8021 13.5592 35.1602 12.5566C35.5182 11.5397 35.9479 10.5658 36.4492 9.63477C36.9648 8.68945 37.5521 7.85872 38.2109 7.14258C38.8698 6.42643 39.6003 5.85352 40.4023 5.42383C41.2044 4.97982 42.0853 4.75781 43.0449 4.75781C43.6322 4.75781 44.1263 4.87956 44.5273 5.12305C44.9427 5.35221 45.2721 5.66016 45.5156 6.04688C45.7734 6.43359 45.9525 6.87044 46.0527 7.35742C46.153 7.8444 46.196 8.33854 46.1816 8.83984C46.153 9.3125 46.0814 9.77083 45.9668 10.2148C45.8665 10.6589 45.7161 11.0599 45.5156 11.418C45.3294 11.7617 45.0931 12.041 44.8066 12.2559C44.5345 12.4564 44.2194 12.5566 43.8613 12.5566C43.6895 12.5423 43.5247 12.485 43.3672 12.3848C43.224 12.2988 43.0736 12.1699 42.916 11.998C42.7728 11.8262 42.6367 11.5755 42.5078 11.2461C42.8945 11.0885 43.1953 10.8164 43.4102 10.4297C43.6393 10.0286 43.8112 9.61328 43.9258 9.18359C44.0547 8.69661 44.1406 8.15234 44.1836 7.55078C44.2122 6.96354 44.0905 6.53385 43.8184 6.26172C43.5462 5.98958 43.2383 5.85352 42.8945 5.85352C42.2214 5.85352 41.5124 6.20443 40.7676 6.90625C40.0228 7.60807 39.3281 8.56055 38.6836 9.76367C38.0534 10.9525 37.5163 12.3418 37.0723 13.9316C36.6426 15.5215 36.3919 17.2044 36.3203 18.9805C36.2917 19.7826 36.3418 20.4629 36.4707 21.0215C36.6139 21.5801 36.8073 22.0384 37.0508 22.3965C37.3086 22.7546 37.5951 23.0124 37.9102 23.1699C38.2253 23.3275 38.5404 23.4062 38.8555 23.4062C39.3568 23.4062 39.8294 23.2988 40.2734 23.084C40.7174 22.8691 41.1185 22.6042 41.4766 22.2891C41.849 21.974 42.1641 21.6445 42.4219 21.3008C42.694 20.9714 42.9017 20.6777 43.0449 20.4199C43.1452 20.2337 43.2526 20.1191 43.3672 20.0762C43.4818 20.0332 43.582 20.0475 43.668 20.1191C43.7539 20.1764 43.8112 20.2767 43.8398 20.4199C43.8685 20.5488 43.8398 20.7064 43.7539 20.8926C43.5104 21.3796 43.2096 21.8665 42.8516 22.3535C42.5078 22.8405 42.1139 23.2773 41.6699 23.6641C41.2402 24.0651 40.7676 24.3874 40.252 24.6309C39.7363 24.8743 39.1921 24.9961 38.6191 24.9961ZM52.4336 17.584C52.2904 18.1283 52.097 18.6367 51.8535 19.1094C51.61 19.582 51.3164 19.9902 50.9727 20.334C50.6432 20.6777 50.2637 20.9427 49.834 21.1289C49.4186 21.3294 48.9603 21.4297 48.459 21.4297C47.8717 21.4297 47.4062 21.3008 47.0625 21.043C46.7331 20.7995 46.4824 20.4915 46.3105 20.1191C46.153 19.7467 46.0599 19.3385 46.0312 18.8945C45.9883 18.4505 45.9668 18.0352 45.9668 17.6484C45.9668 17.3763 46.0026 17.0755 46.0742 16.7461C46.1315 16.4167 46.2174 16.0801 46.332 15.7363C46.4466 15.3926 46.5898 15.0488 46.7617 14.7051C46.9479 14.3613 47.1628 14.0462 47.4062 13.7598C47.4922 13.5163 47.6211 13.3014 47.793 13.1152C47.9792 12.929 48.1868 12.7786 48.416 12.6641C48.6595 12.5352 48.9173 12.4421 49.1895 12.3848C49.4616 12.3132 49.7266 12.2773 49.9844 12.2773C50.0273 12.2773 50.0632 12.2845 50.0918 12.2988C50.1348 12.3132 50.1777 12.3275 50.2207 12.3418C50.4069 12.3561 50.6361 12.4277 50.9082 12.5566C51.1947 12.6855 51.4668 12.8789 51.7246 13.1367C51.9967 13.3945 52.2259 13.724 52.4121 14.125C52.5983 14.5117 52.6914 14.9844 52.6914 15.543C52.6914 15.6576 52.6842 15.8008 52.6699 15.9727C52.6556 16.1302 52.6413 16.2663 52.627 16.3809C52.9564 16.252 53.3001 16.0944 53.6582 15.9082C54.0163 15.722 54.36 15.5286 54.6895 15.3281C55.0332 15.1133 55.3483 14.8984 55.6348 14.6836C55.9212 14.4688 56.1504 14.2754 56.3223 14.1035C56.4655 13.9746 56.5872 13.903 56.6875 13.8887C56.7878 13.8743 56.8594 13.903 56.9023 13.9746C56.9453 14.0462 56.9525 14.1465 56.9238 14.2754C56.8952 14.4043 56.8164 14.5475 56.6875 14.7051C56.6159 14.791 56.4297 14.9629 56.1289 15.2207C55.8424 15.4785 55.4987 15.7578 55.0977 16.0586C54.6966 16.3594 54.2598 16.653 53.7871 16.9395C53.3145 17.2259 52.8633 17.4408 52.4336 17.584ZM48.8027 14.3184C48.7598 14.4473 48.7383 14.5833 48.7383 14.7266C48.7383 14.9557 48.7526 15.1992 48.7812 15.457C48.8099 15.7005 48.8815 15.9225 48.9961 16.123C49.1107 16.3236 49.2897 16.4954 49.5332 16.6387C49.791 16.7676 50.1419 16.832 50.5859 16.832C50.6576 16.832 50.7292 16.832 50.8008 16.832C50.8724 16.8177 50.944 16.8034 51.0156 16.7891C51.0586 16.6029 51.0944 16.4382 51.123 16.2949C51.166 16.1374 51.1875 16.0013 51.1875 15.8867C51.2161 15.6146 51.2161 15.3353 51.1875 15.0488C51.1589 14.7624 51.1016 14.5046 51.0156 14.2754C50.944 14.0319 50.8438 13.8385 50.7148 13.6953C50.6003 13.5378 50.457 13.459 50.2852 13.459C50.013 13.459 49.748 13.5378 49.4902 13.6953C49.2467 13.8385 49.0176 14.0462 48.8027 14.3184ZM47.4277 18.0996C47.4277 18.3574 47.4421 18.6152 47.4707 18.873C47.4993 19.1165 47.5566 19.3385 47.6426 19.5391C47.7285 19.7253 47.8431 19.8828 47.9863 20.0117C48.1296 20.1263 48.3158 20.1836 48.5449 20.1836C48.8027 20.1836 49.0391 20.1263 49.2539 20.0117C49.4688 19.8828 49.6621 19.7253 49.834 19.5391C50.0059 19.3385 50.1562 19.1165 50.2852 18.873C50.4284 18.6152 50.5501 18.3503 50.6504 18.0781C50.5501 18.0924 50.4499 18.1068 50.3496 18.1211C50.2637 18.1211 50.1634 18.1211 50.0488 18.1211C49.5046 18.1211 49.0319 17.9635 48.6309 17.6484C48.2441 17.319 47.9434 16.9036 47.7285 16.4023C47.6426 16.7031 47.571 16.9967 47.5137 17.2832C47.4564 17.5697 47.4277 17.8418 47.4277 18.0996ZM55.1621 18.7656C55.0046 18.6081 54.89 18.4577 54.8184 18.3145C54.7611 18.1569 54.7181 18.0065 54.6895 17.8633C54.6608 17.7057 54.6608 17.5482 54.6895 17.3906C54.7467 17.1901 54.8327 17.0039 54.9473 16.832C55.0475 16.6745 55.1836 16.5169 55.3555 16.3594C55.5273 16.1875 55.7565 16.0299 56.043 15.8867C56.2292 15.4284 56.3939 14.9486 56.5371 14.4473C56.6947 13.9316 56.8307 13.4661 56.9453 13.0508C57.0742 12.5638 57.1888 12.0768 57.2891 11.5898C57.6471 10.3724 57.8333 9.38411 57.8477 8.625C57.862 7.85156 57.8477 7.3431 57.8047 7.09961C57.7904 6.99935 57.776 6.89909 57.7617 6.79883C57.7331 6.71289 57.7044 6.61979 57.6758 6.51953C57.6615 6.40495 57.64 6.29753 57.6113 6.19727C57.7689 6.11133 57.9049 6.03971 58.0195 5.98242C58.1484 5.92513 58.2559 5.88216 58.3418 5.85352C58.4421 5.81055 58.5352 5.7819 58.6211 5.76758C58.9505 5.69596 59.2585 5.66016 59.5449 5.66016C59.8457 5.64583 60.0104 5.69596 60.0391 5.81055C60.0534 5.88216 60.0677 6.01107 60.082 6.19727C60.1107 6.38346 60.125 6.61263 60.125 6.88477C60.125 7.1569 60.1035 7.46484 60.0605 7.80859C60.0176 8.13802 59.9388 8.48893 59.8242 8.86133C59.724 9.19076 59.5879 9.64909 59.416 10.2363C59.2585 10.7376 59.0508 11.4108 58.793 12.2559C58.5352 13.0866 58.1986 14.1536 57.7832 15.457C58.2129 15.3138 58.6855 15.1777 59.2012 15.0488C59.7168 14.9199 60.2396 14.8125 60.7695 14.7266C61.3138 14.6406 61.8509 14.5762 62.3809 14.5332C62.9251 14.4902 63.4264 14.4831 63.8848 14.5117C63.9707 14.5117 64.028 14.5547 64.0566 14.6406C64.0996 14.7122 64.0996 14.791 64.0566 14.877C64.028 14.9629 63.9492 15.0488 63.8203 15.1348C63.7057 15.2064 63.5339 15.2493 63.3047 15.2637C63.0182 15.2923 62.7031 15.3281 62.3594 15.3711C62.0156 15.3997 61.6576 15.4499 61.2852 15.5215C60.9271 15.5788 60.569 15.6576 60.2109 15.7578C59.8529 15.8438 59.5163 15.9512 59.2012 16.0801C58.9577 16.166 58.7142 16.252 58.4707 16.3379C58.2702 16.4095 58.0553 16.4954 57.8262 16.5957C57.6113 16.6816 57.4323 16.7604 57.2891 16.832L56.7949 18.4004C57.6257 18.9876 58.263 19.5892 58.707 20.2051C59.1654 20.821 59.4948 21.3867 59.6953 21.9023C59.9388 22.5039 60.0749 23.0911 60.1035 23.6641C60.1035 24.2943 60.0104 24.9245 59.8242 25.5547C59.638 26.1992 59.3874 26.8079 59.0723 27.3809C58.7715 27.9681 58.4134 28.5124 57.998 29.0137C57.597 29.515 57.1673 29.9447 56.709 30.3027C56.265 30.6608 55.8066 30.9329 55.334 31.1191C54.8757 31.3053 54.4388 31.377 54.0234 31.334C53.7227 31.3053 53.472 31.2051 53.2715 31.0332C53.071 30.8757 52.9206 30.668 52.8203 30.4102C52.7201 30.1667 52.6628 29.8874 52.6484 29.5723C52.6341 29.2715 52.6628 28.9707 52.7344 28.6699C52.7917 28.3691 52.9134 27.8105 53.0996 26.9941C53.2572 26.3066 53.5007 25.304 53.8301 23.9863C54.1595 22.6829 54.6035 20.9427 55.1621 18.7656ZM56.4297 19.7754C56.2292 20.4915 56.0501 21.1504 55.8926 21.752C55.7493 22.3535 55.6276 22.8835 55.5273 23.3418C55.3984 23.8717 55.2982 24.3516 55.2266 24.7812C55.0977 25.3255 54.9616 25.8626 54.8184 26.3926C54.6895 26.9225 54.5892 27.3952 54.5176 27.8105C54.4316 28.2402 54.3958 28.584 54.4102 28.8418C54.4245 29.0996 54.5176 29.2285 54.6895 29.2285C55.1048 29.2572 55.5345 29.0924 55.9785 28.7344C56.4368 28.3906 56.8522 27.9466 57.2246 27.4023C57.597 26.8724 57.9049 26.2923 58.1484 25.6621C58.3919 25.0462 58.5137 24.4733 58.5137 23.9434C58.5137 23.3561 58.4206 22.776 58.2344 22.2031C58.1055 21.9023 57.9551 21.6087 57.7832 21.3223C57.6257 21.0788 57.4323 20.821 57.2031 20.5488C56.9883 20.2624 56.7305 20.0046 56.4297 19.7754ZM62.3164 18.7656C62.1589 18.6081 62.0443 18.4577 61.9727 18.3145C61.9154 18.1569 61.8724 18.0065 61.8438 17.8633C61.8151 17.7057 61.8151 17.5482 61.8438 17.3906C61.901 17.1901 61.987 17.0039 62.1016 16.832C62.2018 16.6745 62.3379 16.5169 62.5098 16.3594C62.6816 16.1875 62.9108 16.0299 63.1973 15.8867C63.3835 15.4284 63.5482 14.9486 63.6914 14.4473C63.849 13.9316 63.985 13.4661 64.0996 13.0508C64.2285 12.5638 64.3431 12.0768 64.4434 11.5898C64.8014 10.3724 64.9876 9.38411 65.002 8.625C65.0163 7.85156 65.002 7.3431 64.959 7.09961C64.9447 6.99935 64.9303 6.89909 64.916 6.79883C64.8874 6.71289 64.8587 6.61979 64.8301 6.51953C64.8158 6.40495 64.7943 6.29753 64.7656 6.19727C64.9232 6.11133 65.0592 6.03971 65.1738 5.98242C65.3027 5.92513 65.4102 5.88216 65.4961 5.85352C65.5964 5.81055 65.6895 5.7819 65.7754 5.76758C66.1048 5.69596 66.4128 5.66016 66.6992 5.66016C67 5.64583 67.1647 5.69596 67.1934 5.81055C67.2077 5.88216 67.222 6.01107 67.2363 6.19727C67.265 6.38346 67.2793 6.61263 67.2793 6.88477C67.2793 7.1569 67.2578 7.46484 67.2148 7.80859C67.1719 8.13802 67.0931 8.48893 66.9785 8.86133C66.8783 9.19076 66.7422 9.64909 66.5703 10.2363C66.4128 10.7376 66.2051 11.4108 65.9473 12.2559C65.6895 13.0866 65.3529 14.1536 64.9375 15.457C65.3672 15.3138 65.8398 15.1777 66.3555 15.0488C66.8711 14.9199 67.3939 14.8125 67.9238 14.7266C68.4681 14.6406 69.0052 14.5762 69.5352 14.5332C70.0794 14.4902 70.5807 14.4831 71.0391 14.5117C71.125 14.5117 71.1823 14.5547 71.2109 14.6406C71.2539 14.7122 71.2539 14.791 71.2109 14.877C71.1823 14.9629 71.1035 15.0488 70.9746 15.1348C70.86 15.2064 70.6882 15.2493 70.459 15.2637C70.1725 15.2923 69.8574 15.3281 69.5137 15.3711C69.1699 15.3997 68.8118 15.4499 68.4395 15.5215C68.0814 15.5788 67.7233 15.6576 67.3652 15.7578C67.0072 15.8438 66.6706 15.9512 66.3555 16.0801C66.112 16.166 65.8685 16.252 65.625 16.3379C65.4245 16.4095 65.2096 16.4954 64.9805 16.5957C64.7656 16.6816 64.5866 16.7604 64.4434 16.832L63.9492 18.4004C64.7799 18.9876 65.4173 19.5892 65.8613 20.2051C66.3197 20.821 66.6491 21.3867 66.8496 21.9023C67.0931 22.5039 67.2292 23.0911 67.2578 23.6641C67.2578 24.2943 67.1647 24.9245 66.9785 25.5547C66.7923 26.1992 66.5417 26.8079 66.2266 27.3809C65.9258 27.9681 65.5677 28.5124 65.1523 29.0137C64.7513 29.515 64.3216 29.9447 63.8633 30.3027C63.4193 30.6608 62.9609 30.9329 62.4883 31.1191C62.0299 31.3053 61.5931 31.377 61.1777 31.334C60.877 31.3053 60.6263 31.2051 60.4258 31.0332C60.2253 30.8757 60.0749 30.668 59.9746 30.4102C59.8743 30.1667 59.8171 29.8874 59.8027 29.5723C59.7884 29.2715 59.8171 28.9707 59.8887 28.6699C59.946 28.3691 60.0677 27.8105 60.2539 26.9941C60.4115 26.3066 60.6549 25.304 60.9844 23.9863C61.3138 22.6829 61.7578 20.9427 62.3164 18.7656ZM63.584 19.7754C63.3835 20.4915 63.2044 21.1504 63.0469 21.752C62.9036 22.3535 62.7819 22.8835 62.6816 23.3418C62.5527 23.8717 62.4525 24.3516 62.3809 24.7812C62.252 25.3255 62.1159 25.8626 61.9727 26.3926C61.8438 26.9225 61.7435 27.3952 61.6719 27.8105C61.5859 28.2402 61.5501 28.584 61.5645 28.8418C61.5788 29.0996 61.6719 29.2285 61.8438 29.2285C62.2591 29.2572 62.6888 29.0924 63.1328 28.7344C63.5911 28.3906 64.0065 27.9466 64.3789 27.4023C64.7513 26.8724 65.0592 26.2923 65.3027 25.6621C65.5462 25.0462 65.668 24.4733 65.668 23.9434C65.668 23.3561 65.5749 22.776 65.3887 22.2031C65.2598 21.9023 65.1094 21.6087 64.9375 21.3223C64.7799 21.0788 64.5866 20.821 64.3574 20.5488C64.1426 20.2624 63.8848 20.0046 63.584 19.7754ZM78.7734 16.5312C78.3438 17.1615 77.8568 17.7773 77.3125 18.3789C76.7682 18.9661 76.1882 19.4961 75.5723 19.9688C74.9707 20.4271 74.3477 20.7995 73.7031 21.0859C73.0729 21.3724 72.457 21.5156 71.8555 21.5156C71.5404 21.5156 71.1966 21.4368 70.8242 21.2793C70.4661 21.1361 70.1367 20.9069 69.8359 20.5918C69.5352 20.2767 69.2917 19.8685 69.1055 19.3672C68.9336 18.8659 68.8835 18.2572 68.9551 17.541C69.0124 16.9538 69.1914 16.3379 69.4922 15.6934C69.8073 15.0345 70.1868 14.4329 70.6309 13.8887C71.0892 13.3444 71.5977 12.8932 72.1562 12.5352C72.7292 12.1771 73.3021 11.998 73.875 11.998C74.4193 11.998 74.8132 12.1341 75.0566 12.4062C75.3001 12.6784 75.4076 13.015 75.3789 13.416C75.3359 13.86 75.207 14.2682 74.9922 14.6406C74.7917 15.013 74.5482 15.3496 74.2617 15.6504C73.9753 15.9512 73.6673 16.2233 73.3379 16.4668C73.0228 16.7103 72.722 16.9323 72.4355 17.1328C72.1204 17.3477 71.8197 17.5553 71.5332 17.7559C71.2467 17.9421 70.9961 18.1139 70.7812 18.2715C70.7956 18.6296 70.86 18.9303 70.9746 19.1738C71.0892 19.4173 71.2324 19.6178 71.4043 19.7754C71.5762 19.9186 71.7695 20.026 71.9844 20.0977C72.2135 20.1549 72.4427 20.1836 72.6719 20.1836C73.1589 20.1836 73.6673 20.0332 74.1973 19.7324C74.7272 19.4173 75.2428 19.0449 75.7441 18.6152C76.2598 18.1712 76.7324 17.7129 77.1621 17.2402C77.6061 16.7676 77.9714 16.3594 78.2578 16.0156C78.3581 15.901 78.4583 15.8366 78.5586 15.8223C78.6732 15.7936 78.7591 15.8079 78.8164 15.8652C78.888 15.9082 78.9238 15.9941 78.9238 16.123C78.9238 16.2376 78.8737 16.3737 78.7734 16.5312ZM73.2734 13.2227C73.1016 13.2227 72.8939 13.3086 72.6504 13.4805C72.4212 13.6523 72.1921 13.903 71.9629 14.2324C71.7337 14.5475 71.5189 14.9414 71.3184 15.4141C71.1178 15.8724 70.9674 16.4023 70.8672 17.0039C71.0391 16.875 71.2253 16.7461 71.4258 16.6172C71.6263 16.474 71.8268 16.3236 72.0273 16.166C72.6432 15.6934 73.0729 15.278 73.3164 14.9199C73.5599 14.5618 73.696 14.2539 73.7246 13.9961C73.7533 13.724 73.7246 13.5306 73.6387 13.416C73.5527 13.2871 73.431 13.2227 73.2734 13.2227ZM86.959 16.5312C86.5293 17.1615 86.0423 17.7773 85.498 18.3789C84.9538 18.9661 84.3737 19.4961 83.7578 19.9688C83.1562 20.4271 82.5332 20.7995 81.8887 21.0859C81.2585 21.3724 80.6426 21.5156 80.041 21.5156C79.7259 21.5156 79.3822 21.4368 79.0098 21.2793C78.6517 21.1361 78.3223 20.9069 78.0215 20.5918C77.7207 20.2767 77.4772 19.8685 77.291 19.3672C77.1191 18.8659 77.069 18.2572 77.1406 17.541C77.1979 16.9538 77.377 16.3379 77.6777 15.6934C77.9928 15.0345 78.3724 14.4329 78.8164 13.8887C79.2747 13.3444 79.7832 12.8932 80.3418 12.5352C80.9147 12.1771 81.4876 11.998 82.0605 11.998C82.6048 11.998 82.9987 12.1341 83.2422 12.4062C83.4857 12.6784 83.5931 13.015 83.5645 13.416C83.5215 13.86 83.3926 14.2682 83.1777 14.6406C82.9772 15.013 82.7337 15.3496 82.4473 15.6504C82.1608 15.9512 81.8529 16.2233 81.5234 16.4668C81.2083 16.7103 80.9076 16.9323 80.6211 17.1328C80.306 17.3477 80.0052 17.5553 79.7188 17.7559C79.4323 17.9421 79.1816 18.1139 78.9668 18.2715C78.9811 18.6296 79.0456 18.9303 79.1602 19.1738C79.2747 19.4173 79.418 19.6178 79.5898 19.7754C79.7617 19.9186 79.9551 20.026 80.1699 20.0977C80.3991 20.1549 80.6283 20.1836 80.8574 20.1836C81.3444 20.1836 81.8529 20.0332 82.3828 19.7324C82.9128 19.4173 83.4284 19.0449 83.9297 18.6152C84.4453 18.1712 84.918 17.7129 85.3477 17.2402C85.7917 16.7676 86.1569 16.3594 86.4434 16.0156C86.5436 15.901 86.6439 15.8366 86.7441 15.8223C86.8587 15.7936 86.9447 15.8079 87.002 15.8652C87.0736 15.9082 87.1094 15.9941 87.1094 16.123C87.1094 16.2376 87.0592 16.3737 86.959 16.5312ZM81.459 13.2227C81.2871 13.2227 81.0794 13.3086 80.8359 13.4805C80.6068 13.6523 80.3776 13.903 80.1484 14.2324C79.9193 14.5475 79.7044 14.9414 79.5039 15.4141C79.3034 15.8724 79.153 16.4023 79.0527 17.0039C79.2246 16.875 79.4108 16.7461 79.6113 16.6172C79.8118 16.474 80.0124 16.3236 80.2129 16.166C80.8288 15.6934 81.2585 15.278 81.502 14.9199C81.7454 14.5618 81.8815 14.2539 81.9102 13.9961C81.9388 13.724 81.9102 13.5306 81.8242 13.416C81.7383 13.2871 81.6165 13.2227 81.459 13.2227ZM90.0312 30.1738C89.931 30.1309 89.8307 30.0664 89.7305 29.9805C89.6445 29.9089 89.5586 29.8158 89.4727 29.7012C89.3867 29.6009 89.3151 29.472 89.2578 29.3145C89.6589 27.7819 90.0026 26.4499 90.2891 25.3184C90.5612 24.1868 90.7975 23.2415 90.998 22.4824C91.2129 21.5944 91.3991 20.8496 91.5566 20.248C91.6999 19.6751 91.8431 19.1022 91.9863 18.5293C92.1009 18.028 92.2227 17.4909 92.3516 16.918C92.4948 16.3451 92.6237 15.8079 92.7383 15.3066C92.8815 14.748 92.9674 14.304 92.9961 13.9746C93.0247 13.6309 92.9173 13.3372 92.6738 13.0938C92.8457 12.9505 93.0176 12.8431 93.1895 12.7715C93.3757 12.6855 93.5404 12.6283 93.6836 12.5996C93.8411 12.5566 93.9987 12.5423 94.1562 12.5566C94.543 12.5853 94.7793 12.707 94.8652 12.9219C94.9655 13.1367 94.9798 13.4805 94.9082 13.9531C94.8939 14.0247 94.8796 14.0892 94.8652 14.1465C94.8652 14.1895 94.8652 14.2396 94.8652 14.2969C95.0658 14.0677 95.2878 13.8457 95.5312 13.6309C95.7747 13.416 96.0182 13.2227 96.2617 13.0508C96.5195 12.8789 96.7773 12.7428 97.0352 12.6426C97.3073 12.528 97.5651 12.4707 97.8086 12.4707C98.138 12.4707 98.403 12.5566 98.6035 12.7285C98.8184 12.8861 98.9831 13.1009 99.0977 13.373C99.2122 13.6452 99.2839 13.9531 99.3125 14.2969C99.3411 14.6263 99.3483 14.9557 99.334 15.2852C99.3197 15.6432 99.2552 16.0228 99.1406 16.4238C99.0404 16.8249 98.8971 17.2331 98.7109 17.6484C98.5247 18.0638 98.3099 18.472 98.0664 18.873C97.8229 19.2741 97.5651 19.6465 97.293 19.9902C97.3503 20.0046 97.3861 20.0189 97.4004 20.0332C97.4147 20.0332 97.4219 20.0404 97.4219 20.0547C97.4219 20.0547 97.429 20.0618 97.4434 20.0762C97.472 20.0762 97.5221 20.0762 97.5938 20.0762C97.9232 20.0762 98.2598 19.9902 98.6035 19.8184C98.9473 19.6465 99.2839 19.4316 99.6133 19.1738C99.9427 18.9017 100.258 18.6081 100.559 18.293C100.874 17.9779 101.153 17.6771 101.396 17.3906C101.654 17.0898 101.869 16.8249 102.041 16.5957C102.213 16.3522 102.342 16.1803 102.428 16.0801C102.542 15.9368 102.65 15.8438 102.75 15.8008C102.85 15.7435 102.929 15.7363 102.986 15.7793C103.044 15.8223 103.072 15.9082 103.072 16.0371C103.072 16.1517 103.029 16.3021 102.943 16.4883C102.886 16.6172 102.764 16.8249 102.578 17.1113C102.392 17.3978 102.163 17.7201 101.891 18.0781C101.618 18.4362 101.303 18.8086 100.945 19.1953C100.602 19.582 100.236 19.9329 99.8496 20.248C99.4629 20.5632 99.0618 20.821 98.6465 21.0215C98.2454 21.2363 97.8516 21.3438 97.4648 21.3438C97.2786 21.3438 97.1283 21.3366 97.0137 21.3223C96.8991 21.3079 96.7988 21.2793 96.7129 21.2363C96.6413 21.2077 96.5697 21.1719 96.498 21.1289C96.4264 21.1003 96.3405 21.0645 96.2402 21.0215C95.9824 21.222 95.7174 21.3724 95.4453 21.4727C95.1732 21.5872 94.9082 21.6445 94.6504 21.6445C94.4069 21.6445 94.1921 21.6016 94.0059 21.5156C93.834 21.444 93.6908 21.3366 93.5762 21.1934C93.4616 21.0645 93.3685 20.9212 93.2969 20.7637C93.2253 20.5918 93.168 20.4271 93.125 20.2695C93.1107 20.3268 93.0964 20.377 93.082 20.4199C93.082 20.4629 93.0749 20.5202 93.0605 20.5918C92.8887 21.2793 92.7096 22.0742 92.5234 22.9766C92.3659 23.75 92.1725 24.6882 91.9434 25.791C91.7285 26.9082 91.4993 28.1758 91.2559 29.5938C91.1699 29.9805 91.0195 30.2025 90.8047 30.2598C90.5755 30.3171 90.3177 30.2884 90.0312 30.1738ZM93.9629 16.8535C93.8913 17.097 93.8125 17.3835 93.7266 17.7129C93.6549 18.028 93.569 18.4076 93.4688 18.8516C93.5833 18.7656 93.7122 18.7012 93.8555 18.6582C93.9987 18.6152 94.1419 18.5938 94.2852 18.5938C94.4427 18.5938 94.6432 18.6797 94.8867 18.8516C95.1302 19.0091 95.4238 19.181 95.7676 19.3672C95.9824 19.1094 96.2044 18.8229 96.4336 18.5078C96.6771 18.1784 96.8919 17.8418 97.0781 17.498C97.2786 17.1543 97.4434 16.8034 97.5723 16.4453C97.7155 16.0872 97.7943 15.7435 97.8086 15.4141C97.8372 14.9844 97.7871 14.6478 97.6582 14.4043C97.5293 14.1608 97.3145 14.0391 97.0137 14.0391C96.5697 14.0391 96.0827 14.304 95.5527 14.834C95.0371 15.3496 94.5072 16.0228 93.9629 16.8535ZM112.525 16.7246C112.325 17.0111 112.067 17.3691 111.752 17.7988C111.437 18.2142 111.107 18.6367 110.764 19.0664C110.434 19.4818 110.105 19.8685 109.775 20.2266C109.46 20.5703 109.195 20.8138 108.98 20.957C108.837 21.043 108.673 21.1146 108.486 21.1719C108.3 21.2292 108.107 21.265 107.906 21.2793C107.72 21.2936 107.541 21.2793 107.369 21.2363C107.197 21.2077 107.047 21.1504 106.918 21.0645C106.789 20.9642 106.682 20.821 106.596 20.6348C106.524 20.4772 106.452 20.2695 106.381 20.0117C106.324 19.7539 106.302 19.4316 106.316 19.0449C105.973 19.6178 105.593 20.0618 105.178 20.377C104.762 20.6777 104.368 20.8997 103.996 21.043C103.566 21.2005 103.137 21.2936 102.707 21.3223C102.507 21.3223 102.292 21.2507 102.062 21.1074C101.833 20.9785 101.64 20.7708 101.482 20.4844C101.325 20.1836 101.225 19.804 101.182 19.3457C101.139 18.873 101.196 18.3145 101.354 17.6699C101.554 16.7962 101.869 16.0013 102.299 15.2852C102.743 14.569 103.223 13.9603 103.738 13.459C104.254 12.9434 104.762 12.5566 105.264 12.2988C105.765 12.041 106.18 11.9264 106.51 11.9551C106.896 12.0267 107.212 12.1413 107.455 12.2988C107.656 12.4421 107.785 12.6569 107.842 12.9434C107.913 13.2155 107.799 13.5807 107.498 14.0391C107.699 13.9961 107.863 13.9674 107.992 13.9531C108.135 13.9388 108.243 13.9316 108.314 13.9316C108.4 13.9316 108.458 13.9388 108.486 13.9531C108.501 13.9818 108.508 14.0462 108.508 14.1465C108.508 14.2324 108.486 14.3971 108.443 14.6406C108.4 14.8841 108.336 15.2135 108.25 15.6289C108.164 16.0443 108.049 16.5814 107.906 17.2402C107.878 17.3691 107.849 17.4909 107.82 17.6055C107.806 17.7057 107.785 17.8132 107.756 17.9277C107.742 18.028 107.72 18.1497 107.691 18.293C107.663 18.4362 107.627 18.6152 107.584 18.8301C107.57 18.959 107.562 19.1022 107.562 19.2598C107.577 19.403 107.605 19.5391 107.648 19.668C107.691 19.7969 107.756 19.9043 107.842 19.9902C107.942 20.0618 108.078 20.0977 108.25 20.0977C108.393 20.0977 108.579 20.0117 108.809 19.8398C109.038 19.6536 109.281 19.4245 109.539 19.1523C109.797 18.8659 110.062 18.5579 110.334 18.2285C110.62 17.8848 110.885 17.5553 111.129 17.2402C111.372 16.9251 111.587 16.6458 111.773 16.4023C111.974 16.1589 112.117 15.9798 112.203 15.8652C112.318 15.7363 112.432 15.6647 112.547 15.6504C112.661 15.6217 112.747 15.6504 112.805 15.7363C112.862 15.8223 112.869 15.9512 112.826 16.123C112.798 16.2949 112.697 16.4954 112.525 16.7246ZM106.23 17.6699C106.302 17.3835 106.388 17.0469 106.488 16.6602C106.589 16.2734 106.674 15.901 106.746 15.543C106.818 15.1849 106.868 14.8913 106.896 14.6621C106.939 14.4186 106.932 14.304 106.875 14.3184C106.803 14.3327 106.725 14.3542 106.639 14.3828C106.567 14.4115 106.474 14.4329 106.359 14.4473C106.245 14.4616 106.13 14.4831 106.016 14.5117C106.13 14.2826 106.195 14.0964 106.209 13.9531C106.238 13.7956 106.245 13.6738 106.23 13.5879C106.216 13.4876 106.188 13.4089 106.145 13.3516C105.987 13.2227 105.708 13.3301 105.307 13.6738C104.92 14.0033 104.469 14.6191 103.953 15.5215C103.738 15.8939 103.566 16.2949 103.438 16.7246C103.309 17.14 103.215 17.5339 103.158 17.9062C103.115 18.2786 103.108 18.6081 103.137 18.8945C103.165 19.1667 103.223 19.3457 103.309 19.4316C103.466 19.5892 103.645 19.668 103.846 19.668C104.046 19.6536 104.247 19.5964 104.447 19.4961C104.662 19.3815 104.87 19.2383 105.07 19.0664C105.285 18.8945 105.471 18.7155 105.629 18.5293C105.801 18.3431 105.937 18.1712 106.037 18.0137C106.152 17.8561 106.216 17.7415 106.23 17.6699ZM110.27 20.8926C110.169 21.0501 110.062 21.1504 109.947 21.1934C109.818 21.2507 109.711 21.2578 109.625 21.2148C109.525 21.1862 109.46 21.1146 109.432 21C109.403 20.8854 109.432 20.7422 109.518 20.5703C109.561 20.4844 109.661 20.291 109.818 19.9902C109.962 19.6895 110.141 19.3314 110.355 18.916C110.556 18.4863 110.778 18.028 111.021 17.541C111.265 17.0397 111.494 16.5671 111.709 16.123C111.938 15.679 112.146 15.2852 112.332 14.9414C112.518 14.5833 112.654 14.3255 112.74 14.168C112.583 14.0247 112.475 13.9245 112.418 13.8672C112.361 13.7956 112.318 13.6523 112.289 13.4375C112.26 13.2513 112.303 13.0078 112.418 12.707C112.533 12.4062 112.683 12.1198 112.869 11.8477C113.055 11.5612 113.263 11.3177 113.492 11.1172C113.721 10.9167 113.943 10.8164 114.158 10.8164C114.559 10.8164 114.839 10.9453 114.996 11.2031C115.168 11.4609 115.268 11.7259 115.297 11.998C115.326 12.1842 115.311 12.4206 115.254 12.707C115.197 12.9935 115.089 13.2513 114.932 13.4805C114.975 13.5091 115.032 13.5449 115.104 13.5879C115.175 13.6165 115.29 13.6309 115.447 13.6309C115.676 13.6309 115.834 13.6165 115.92 13.5879C116.02 13.5592 116.171 13.5449 116.371 13.5449C116.615 13.5449 116.815 13.6094 116.973 13.7383C117.13 13.8529 117.259 14.0033 117.359 14.1895C117.46 14.3613 117.531 14.5547 117.574 14.7695C117.632 14.9701 117.667 15.1562 117.682 15.3281C117.725 15.6862 117.632 16.0586 117.402 16.4453C117.173 16.832 116.894 17.2546 116.564 17.7129C116.364 17.9993 116.163 18.3216 115.963 18.6797C115.762 19.0378 115.676 19.36 115.705 19.6465C115.734 19.8327 115.784 19.9831 115.855 20.0977C115.927 20.2122 116.128 20.2695 116.457 20.2695C116.701 20.2695 116.965 20.1836 117.252 20.0117C117.553 19.8255 117.854 19.5964 118.154 19.3242C118.469 19.0378 118.777 18.7298 119.078 18.4004C119.379 18.0566 119.658 17.7272 119.916 17.4121C120.174 17.0827 120.389 16.7891 120.561 16.5312C120.747 16.2734 120.883 16.0872 120.969 15.9727C121.04 15.8581 121.133 15.7793 121.248 15.7363C121.363 15.6934 121.463 15.6934 121.549 15.7363C121.635 15.7793 121.685 15.8652 121.699 15.9941C121.728 16.123 121.678 16.2949 121.549 16.5098C121.463 16.653 121.312 16.8822 121.098 17.1973C120.897 17.5124 120.646 17.8633 120.346 18.25C120.059 18.6367 119.737 19.0378 119.379 19.4531C119.021 19.8542 118.641 20.2266 118.24 20.5703C117.854 20.8997 117.46 21.1719 117.059 21.3867C116.672 21.6016 116.299 21.709 115.941 21.709C115.569 21.709 115.261 21.6374 115.018 21.4941C114.774 21.3509 114.574 21.179 114.416 20.9785C114.273 20.7637 114.165 20.5345 114.094 20.291C114.036 20.0332 114.015 19.7969 114.029 19.582C114.044 19.4102 114.087 19.2311 114.158 19.0449C114.244 18.8444 114.337 18.6439 114.438 18.4434C114.552 18.2285 114.667 18.0208 114.781 17.8203C114.91 17.6055 115.025 17.3978 115.125 17.1973C115.368 16.7819 115.562 16.431 115.705 16.1445C115.863 15.8438 115.941 15.5931 115.941 15.3926C115.941 15.2637 115.913 15.1491 115.855 15.0488C115.798 14.9486 115.705 14.8984 115.576 14.8984C115.49 14.8984 115.426 14.9056 115.383 14.9199C115.354 14.9199 115.318 14.9199 115.275 14.9199C115.247 14.9199 115.197 14.9271 115.125 14.9414C115.068 14.9414 114.975 14.9414 114.846 14.9414C114.66 14.9414 114.502 14.9128 114.373 14.8555C114.244 14.7982 114.122 14.7552 114.008 14.7266C113.951 14.8268 113.822 15.0417 113.621 15.3711C113.421 15.7005 113.184 16.0872 112.912 16.5312C112.654 16.9753 112.375 17.4408 112.074 17.9277C111.788 18.4147 111.516 18.873 111.258 19.3027C111 19.7181 110.785 20.0762 110.613 20.377C110.427 20.6634 110.312 20.8353 110.27 20.8926ZM131.045 16.7246C130.844 17.0111 130.587 17.3691 130.271 17.7988C129.956 18.2142 129.627 18.6367 129.283 19.0664C128.954 19.4818 128.624 19.8685 128.295 20.2266C127.98 20.5703 127.715 20.8138 127.5 20.957C127.357 21.043 127.192 21.1146 127.006 21.1719C126.82 21.2292 126.626 21.265 126.426 21.2793C126.24 21.2936 126.061 21.2793 125.889 21.2363C125.717 21.2077 125.566 21.1504 125.438 21.0645C125.309 20.9642 125.201 20.821 125.115 20.6348C125.044 20.4772 124.972 20.2695 124.9 20.0117C124.843 19.7539 124.822 19.4316 124.836 19.0449C124.492 19.6178 124.113 20.0618 123.697 20.377C123.282 20.6777 122.888 20.8997 122.516 21.043C122.086 21.2005 121.656 21.2936 121.227 21.3223C121.026 21.3223 120.811 21.2507 120.582 21.1074C120.353 20.9785 120.16 20.7708 120.002 20.4844C119.844 20.1836 119.744 19.804 119.701 19.3457C119.658 18.873 119.715 18.3145 119.873 17.6699C120.074 16.7962 120.389 16.0013 120.818 15.2852C121.262 14.569 121.742 13.9603 122.258 13.459C122.773 12.9434 123.282 12.5566 123.783 12.2988C124.285 12.041 124.7 11.9264 125.029 11.9551C125.416 12.0267 125.731 12.1413 125.975 12.2988C126.175 12.4421 126.304 12.6569 126.361 12.9434C126.433 13.2155 126.318 13.5807 126.018 14.0391C126.218 13.9961 126.383 13.9674 126.512 13.9531C126.655 13.9388 126.762 13.9316 126.834 13.9316C126.92 13.9316 126.977 13.9388 127.006 13.9531C127.02 13.9818 127.027 14.0462 127.027 14.1465C127.027 14.2324 127.006 14.3971 126.963 14.6406C126.92 14.8841 126.855 15.2135 126.77 15.6289C126.684 16.0443 126.569 16.5814 126.426 17.2402C126.397 17.3691 126.368 17.4909 126.34 17.6055C126.326 17.7057 126.304 17.8132 126.275 17.9277C126.261 18.028 126.24 18.1497 126.211 18.293C126.182 18.4362 126.146 18.6152 126.104 18.8301C126.089 18.959 126.082 19.1022 126.082 19.2598C126.096 19.403 126.125 19.5391 126.168 19.668C126.211 19.7969 126.275 19.9043 126.361 19.9902C126.462 20.0618 126.598 20.0977 126.77 20.0977C126.913 20.0977 127.099 20.0117 127.328 19.8398C127.557 19.6536 127.801 19.4245 128.059 19.1523C128.316 18.8659 128.581 18.5579 128.854 18.2285C129.14 17.8848 129.405 17.5553 129.648 17.2402C129.892 16.9251 130.107 16.6458 130.293 16.4023C130.493 16.1589 130.637 15.9798 130.723 15.8652C130.837 15.7363 130.952 15.6647 131.066 15.6504C131.181 15.6217 131.267 15.6504 131.324 15.7363C131.382 15.8223 131.389 15.9512 131.346 16.123C131.317 16.2949 131.217 16.4954 131.045 16.7246ZM124.75 17.6699C124.822 17.3835 124.908 17.0469 125.008 16.6602C125.108 16.2734 125.194 15.901 125.266 15.543C125.337 15.1849 125.387 14.8913 125.416 14.6621C125.459 14.4186 125.452 14.304 125.395 14.3184C125.323 14.3327 125.244 14.3542 125.158 14.3828C125.087 14.4115 124.993 14.4329 124.879 14.4473C124.764 14.4616 124.65 14.4831 124.535 14.5117C124.65 14.2826 124.714 14.0964 124.729 13.9531C124.757 13.7956 124.764 13.6738 124.75 13.5879C124.736 13.4876 124.707 13.4089 124.664 13.3516C124.507 13.2227 124.227 13.3301 123.826 13.6738C123.439 14.0033 122.988 14.6191 122.473 15.5215C122.258 15.8939 122.086 16.2949 121.957 16.7246C121.828 17.14 121.735 17.5339 121.678 17.9062C121.635 18.2786 121.628 18.6081 121.656 18.8945C121.685 19.1667 121.742 19.3457 121.828 19.4316C121.986 19.5892 122.165 19.668 122.365 19.668C122.566 19.6536 122.766 19.5964 122.967 19.4961C123.182 19.3815 123.389 19.2383 123.59 19.0664C123.805 18.8945 123.991 18.7155 124.148 18.5293C124.32 18.3431 124.456 18.1712 124.557 18.0137C124.671 17.8561 124.736 17.7415 124.75 17.6699ZM136.438 16.8965C136.366 17.3405 136.294 17.763 136.223 18.1641C136.165 18.5651 136.13 18.8874 136.115 19.1309C136.101 19.4889 136.165 19.7467 136.309 19.9043C136.452 20.0618 136.609 20.1406 136.781 20.1406C136.982 20.1406 137.225 20.0404 137.512 19.8398C137.812 19.6393 138.128 19.3887 138.457 19.0879C138.786 18.7871 139.116 18.4577 139.445 18.0996C139.775 17.7415 140.076 17.4049 140.348 17.0898C140.634 16.7604 140.87 16.474 141.057 16.2305C141.257 15.987 141.393 15.8294 141.465 15.7578C141.551 15.6719 141.637 15.6217 141.723 15.6074C141.823 15.5931 141.902 15.6074 141.959 15.6504C142.016 15.6934 142.045 15.7721 142.045 15.8867C142.045 16.0013 141.988 16.1445 141.873 16.3164C141.701 16.5885 141.479 16.9108 141.207 17.2832C140.935 17.6413 140.634 18.0137 140.305 18.4004C139.975 18.7871 139.624 19.1667 139.252 19.5391C138.894 19.9115 138.529 20.2409 138.156 20.5273C137.798 20.8138 137.447 21.043 137.104 21.2148C136.774 21.401 136.473 21.4941 136.201 21.4941C136.001 21.4941 135.807 21.4368 135.621 21.3223C135.449 21.2077 135.292 21.0573 135.148 20.8711C135.005 20.6849 134.891 20.4772 134.805 20.248C134.733 20.0189 134.704 19.7897 134.719 19.5605C134.733 19.4603 134.755 19.2884 134.783 19.0449C134.182 19.7181 133.573 20.2552 132.957 20.6562C132.355 21.043 131.775 21.2363 131.217 21.2363C131.016 21.2363 130.801 21.1862 130.572 21.0859C130.343 20.9857 130.135 20.821 129.949 20.5918C129.777 20.3626 129.634 20.0618 129.52 19.6895C129.405 19.3171 129.362 18.8659 129.391 18.3359C129.434 17.5052 129.598 16.7174 129.885 15.9727C130.171 15.2279 130.529 14.5833 130.959 14.0391C131.403 13.4805 131.897 13.0436 132.441 12.7285C133 12.3991 133.559 12.2344 134.117 12.2344C134.361 12.2344 134.583 12.2988 134.783 12.4277C134.984 12.5423 135.156 12.6999 135.299 12.9004C135.442 13.0866 135.557 13.2943 135.643 13.5234C135.743 13.7526 135.814 13.9674 135.857 14.168C135.958 13.7526 136.051 13.3444 136.137 12.9434C136.223 12.5423 136.309 12.1628 136.395 11.8047C136.538 11.2747 136.688 10.7018 136.846 10.0859C136.989 9.55599 137.154 8.94727 137.34 8.25977C137.526 7.57227 137.734 6.84896 137.963 6.08984C138.106 5.97526 138.242 5.88932 138.371 5.83203C138.5 5.77474 138.622 5.73177 138.736 5.70312C138.865 5.66016 138.987 5.63867 139.102 5.63867C139.245 5.63867 139.374 5.66016 139.488 5.70312C139.603 5.73177 139.696 5.82487 139.768 5.98242C139.854 6.12565 139.911 6.34766 139.939 6.64844C139.968 6.94922 139.968 7.35742 139.939 7.87305C139.911 8.50326 139.796 9.19076 139.596 9.93555C139.41 10.6803 139.159 11.4538 138.844 12.2559C138.529 13.0436 138.163 13.8385 137.748 14.6406C137.347 15.4284 136.91 16.1803 136.438 16.8965ZM135.17 17.1758C135.227 16.9036 135.277 16.6315 135.32 16.3594C135.378 16.0872 135.442 15.8079 135.514 15.5215C135.485 15.5358 135.456 15.5501 135.428 15.5645C135.413 15.5788 135.392 15.5931 135.363 15.6074C135.206 15.679 135.098 15.679 135.041 15.6074C134.984 15.5215 134.955 15.3926 134.955 15.2207C134.955 15.1348 134.948 14.9844 134.934 14.7695C134.919 14.5404 134.876 14.3112 134.805 14.082C134.747 13.8385 134.654 13.6309 134.525 13.459C134.396 13.2728 134.217 13.1797 133.988 13.1797C133.659 13.1797 133.322 13.3516 132.979 13.6953C132.635 14.0247 132.312 14.4329 132.012 14.9199C131.711 15.3926 131.46 15.901 131.26 16.4453C131.059 16.9896 130.945 17.4766 130.916 17.9062C130.887 18.5938 130.973 19.0879 131.174 19.3887C131.374 19.6895 131.646 19.8398 131.99 19.8398C132.248 19.8398 132.527 19.7396 132.828 19.5391C133.143 19.3385 133.444 19.0951 133.73 18.8086C134.031 18.5221 134.303 18.2285 134.547 17.9277C134.805 17.627 135.012 17.3763 135.17 17.1758ZM144.967 8.3457C144.924 8.50326 144.838 8.66081 144.709 8.81836C144.594 8.96159 144.458 9.08333 144.301 9.18359C144.158 9.26953 144.007 9.32682 143.85 9.35547C143.692 9.38411 143.563 9.35547 143.463 9.26953C143.162 9.04036 143.005 8.79688 142.99 8.53906C142.976 8.26693 143.04 8.01628 143.184 7.78711C143.327 7.54362 143.506 7.3431 143.721 7.18555C143.936 7.01367 144.122 6.91341 144.279 6.88477C144.437 6.85612 144.566 6.89193 144.666 6.99219C144.781 7.07812 144.867 7.19987 144.924 7.35742C144.981 7.50065 145.01 7.66536 145.01 7.85156C145.024 8.03776 145.01 8.20247 144.967 8.3457ZM142.002 12.9219C142.074 12.8359 142.21 12.7643 142.41 12.707C142.611 12.6497 142.818 12.6068 143.033 12.5781C143.248 12.5352 143.441 12.5137 143.613 12.5137C143.799 12.4993 143.907 12.4993 143.936 12.5137C143.95 12.528 143.914 12.6784 143.828 12.9648C143.742 13.2513 143.635 13.5879 143.506 13.9746C143.377 14.3613 143.241 14.7624 143.098 15.1777C142.954 15.5788 142.847 15.9082 142.775 16.166C142.704 16.4238 142.618 16.7174 142.518 17.0469C142.417 17.362 142.324 17.6771 142.238 17.9922C142.167 18.293 142.117 18.5794 142.088 18.8516C142.059 19.1237 142.081 19.3314 142.152 19.4746C142.224 19.6465 142.303 19.7682 142.389 19.8398C142.475 19.8971 142.568 19.9258 142.668 19.9258C142.954 19.9258 143.312 19.7682 143.742 19.4531C144.186 19.138 144.63 18.7656 145.074 18.3359C145.533 17.8919 145.955 17.4479 146.342 17.0039C146.729 16.5456 147.015 16.1803 147.201 15.9082C147.316 15.765 147.43 15.6719 147.545 15.6289C147.674 15.5859 147.774 15.5931 147.846 15.6504C147.932 15.7077 147.975 15.8008 147.975 15.9297C147.989 16.0586 147.946 16.209 147.846 16.3809C147.617 16.7819 147.28 17.2617 146.836 17.8203C146.392 18.3646 145.919 18.8945 145.418 19.4102C144.917 19.9115 144.423 20.3411 143.936 20.6992C143.463 21.0573 143.076 21.2435 142.775 21.2578C142.532 21.2721 142.288 21.2292 142.045 21.1289C141.816 21.043 141.601 20.9212 141.4 20.7637C141.214 20.5918 141.057 20.3984 140.928 20.1836C140.799 19.9544 140.727 19.7181 140.713 19.4746C140.67 19.1165 140.67 18.6296 140.713 18.0137C140.756 17.3835 140.835 16.7461 140.949 16.1016C141.064 15.4427 141.207 14.8197 141.379 14.2324C141.565 13.6452 141.773 13.2083 142.002 12.9219ZM149.307 20.2695C149.393 20.3268 149.5 20.3555 149.629 20.3555C149.772 20.3555 149.908 20.3268 150.037 20.2695C150.18 20.2122 150.309 20.1335 150.424 20.0332C150.553 19.9329 150.646 19.804 150.703 19.6465C150.76 19.4889 150.76 19.2669 150.703 18.9805C150.646 18.6797 150.553 18.3646 150.424 18.0352C150.309 17.6914 150.18 17.3477 150.037 17.0039C149.894 16.6602 149.772 16.3451 149.672 16.0586C149.586 15.8438 149.514 15.6432 149.457 15.457C149.4 15.2995 149.342 15.1491 149.285 15.0059C149.242 14.8483 149.206 14.7409 149.178 14.6836C149.106 14.7982 148.977 14.9844 148.791 15.2422C148.619 15.5 148.426 15.7721 148.211 16.0586C148.01 16.3307 147.817 16.5885 147.631 16.832C147.445 17.0612 147.316 17.2188 147.244 17.3047C147.13 17.4336 147.015 17.5124 146.9 17.541C146.8 17.5553 146.714 17.5339 146.643 17.4766C146.571 17.4049 146.528 17.3118 146.514 17.1973C146.514 17.0684 146.571 16.918 146.686 16.7461C146.771 16.6315 146.9 16.4525 147.072 16.209C147.244 15.9512 147.416 15.6934 147.588 15.4355C147.76 15.1634 147.917 14.9271 148.061 14.7266C148.204 14.5117 148.283 14.3828 148.297 14.3398C148.326 14.2253 148.283 14.0749 148.168 13.8887C148.068 13.7025 148.053 13.4876 148.125 13.2441C148.182 13.0436 148.311 12.8145 148.512 12.5566C148.712 12.2845 148.949 12.041 149.221 11.8262C149.493 11.6113 149.772 11.4538 150.059 11.3535C150.345 11.2389 150.603 11.2389 150.832 11.3535C151.018 11.4681 151.169 11.597 151.283 11.7402C151.398 11.8691 151.441 12.0052 151.412 12.1484C151.383 12.2201 151.34 12.3132 151.283 12.4277C151.226 12.5423 151.14 12.6855 151.025 12.8574C150.911 13.015 150.746 13.2227 150.531 13.4805C150.574 13.8099 150.632 14.1107 150.703 14.3828C150.789 14.6549 150.868 14.8913 150.939 15.0918C151.025 15.3353 151.118 15.5573 151.219 15.7578C151.348 16.0156 151.484 16.2806 151.627 16.5527C151.77 16.8249 151.899 17.097 152.014 17.3691C152.128 17.627 152.221 17.8704 152.293 18.0996C152.365 18.3288 152.386 18.5221 152.357 18.6797C152.314 18.9232 152.186 19.2168 151.971 19.5605C151.77 19.9043 151.512 20.2409 151.197 20.5703C150.896 20.8854 150.546 21.1576 150.145 21.3867C149.758 21.6159 149.35 21.7305 148.92 21.7305C148.619 21.7305 148.326 21.6374 148.039 21.4512C147.767 21.265 147.531 21.0501 147.33 20.8066C147.144 20.5488 147.001 20.2982 146.9 20.0547C146.814 19.8112 146.807 19.625 146.879 19.4961C146.965 19.3242 147.044 19.1882 147.115 19.0879C147.187 18.9876 147.294 18.873 147.438 18.7441C147.495 18.7012 147.566 18.651 147.652 18.5938C147.724 18.5508 147.824 18.5078 147.953 18.4648C148.082 18.4219 148.232 18.3717 148.404 18.3145C148.548 18.7585 148.676 19.1094 148.791 19.3672C148.906 19.6107 148.999 19.804 149.07 19.9473C149.156 20.1048 149.235 20.2122 149.307 20.2695ZM163.744 16.5312C163.314 17.1615 162.827 17.7773 162.283 18.3789C161.739 18.9661 161.159 19.4961 160.543 19.9688C159.941 20.4271 159.318 20.7995 158.674 21.0859C158.044 21.3724 157.428 21.5156 156.826 21.5156C156.511 21.5156 156.167 21.4368 155.795 21.2793C155.437 21.1361 155.107 20.9069 154.807 20.5918C154.506 20.2767 154.262 19.8685 154.076 19.3672C153.904 18.8659 153.854 18.2572 153.926 17.541C153.983 16.9538 154.162 16.3379 154.463 15.6934C154.778 15.0345 155.158 14.4329 155.602 13.8887C156.06 13.3444 156.568 12.8932 157.127 12.5352C157.7 12.1771 158.273 11.998 158.846 11.998C159.39 11.998 159.784 12.1341 160.027 12.4062C160.271 12.6784 160.378 13.015 160.35 13.416C160.307 13.86 160.178 14.2682 159.963 14.6406C159.762 15.013 159.519 15.3496 159.232 15.6504C158.946 15.9512 158.638 16.2233 158.309 16.4668C157.993 16.7103 157.693 16.9323 157.406 17.1328C157.091 17.3477 156.79 17.5553 156.504 17.7559C156.217 17.9421 155.967 18.1139 155.752 18.2715C155.766 18.6296 155.831 18.9303 155.945 19.1738C156.06 19.4173 156.203 19.6178 156.375 19.7754C156.547 19.9186 156.74 20.026 156.955 20.0977C157.184 20.1549 157.413 20.1836 157.643 20.1836C158.13 20.1836 158.638 20.0332 159.168 19.7324C159.698 19.4173 160.214 19.0449 160.715 18.6152C161.23 18.1712 161.703 17.7129 162.133 17.2402C162.577 16.7676 162.942 16.3594 163.229 16.0156C163.329 15.901 163.429 15.8366 163.529 15.8223C163.644 15.7936 163.73 15.8079 163.787 15.8652C163.859 15.9082 163.895 15.9941 163.895 16.123C163.895 16.2376 163.844 16.3737 163.744 16.5312ZM158.244 13.2227C158.072 13.2227 157.865 13.3086 157.621 13.4805C157.392 13.6523 157.163 13.903 156.934 14.2324C156.704 14.5475 156.49 14.9414 156.289 15.4141C156.089 15.8724 155.938 16.4023 155.838 17.0039C156.01 16.875 156.196 16.7461 156.396 16.6172C156.597 16.474 156.798 16.3236 156.998 16.166C157.614 15.6934 158.044 15.278 158.287 14.9199C158.531 14.5618 158.667 14.2539 158.695 13.9961C158.724 13.724 158.695 13.5306 158.609 13.416C158.523 13.2871 158.402 13.2227 158.244 13.2227Z" fill="black"/>
<g clip-path="url(#clip0)">
<path d="M19.9453 16.8966C19.6728 14.2629 18.3965 11.6854 16.3516 9.64042C12.0929 5.38427 5.77797 4.77053 2.27551 8.27669C-1.22944 11.7816 -0.616947 18.0941 3.64049 22.3515C5.68547 24.3965 8.26293 25.6727 10.8966 25.9452C11.2479 25.9814 11.5941 26.0002 11.9354 26.0002C14.2003 26.0002 16.2253 25.2065 17.7166 23.7152C19.4315 22.0015 20.224 19.579 19.9453 16.8966ZM13.7129 19.0578C12.3179 17.9928 10.8054 17.5716 9.16292 17.1216C5.02798 15.9878 2.97425 12.5379 2.49426 8.49422C3.65924 9.8992 4.51923 11.5042 5.94921 12.6804C7.47294 13.9329 9.15042 14.3891 10.9929 14.9229C15.0378 16.0966 17.0391 19.5166 17.4991 23.4978C16.2366 21.9803 15.3103 20.2778 13.7129 19.0578Z" fill="#B06345"/>
</g>
<defs>
<clipPath id="clip0">
<rect width="20" height="20" fill="white" transform="translate(0 6)"/>
</clipPath>
</defs>
</svg>
