<svg width="84" height="84" viewBox="0 0 84 84" fill="none" xmlns="http://www.w3.org/2000/svg">
<path d="M27.0266 49.7423C24.1454 49.7423 22.0514 51.9165 22.0514 54.571V54.5977C22.0514 57.2519 24.1188 59.3997 26.9999 59.3997C29.881 59.3997 31.9752 57.2255 31.9752 54.571V54.5443C31.9752 51.8899 29.9078 49.7423 27.0266 49.7423ZM29.8277 54.5977H29.8276C29.8276 56.1983 28.6805 57.5056 27.0264 57.5056C25.3724 57.5056 24.1988 56.1717 24.1988 54.5711V54.5444C24.1988 52.9438 25.346 51.6365 27 51.6365C28.654 51.6365 29.8279 52.9704 29.8279 54.571V54.5977H29.8277Z" fill="#B06345"/>
<path d="M38.2849 49.9026H35.4971C34.9236 49.9026 34.4701 50.3561 34.4701 50.9296V58.2924C34.4701 58.866 34.9236 59.3195 35.4971 59.3195C36.0708 59.3193 36.5243 58.8658 36.5243 58.2923V56.4383H38.0848C40.179 56.4383 41.8598 55.3177 41.8598 53.1569V53.1302C41.8596 51.2229 40.5124 49.9026 38.2849 49.9026ZM39.7788 53.1969C39.7788 53.9972 39.1785 54.6107 38.1515 54.6107H36.5242V51.7564H36.5243H38.1116C39.1386 51.7564 39.7788 52.25 39.7788 53.1701V53.1969Z" fill="#B06345"/>
<path d="M50.3166 57.4117H46.0883V55.4508H49.6496C50.1566 55.4508 50.57 55.0506 50.57 54.5437C50.57 54.0367 50.1564 53.6233 49.6496 53.6233H46.0883V51.7293H50.2501V51.7298C50.757 51.7298 51.1704 51.3296 51.1704 50.8225C51.1704 50.3156 50.7568 49.9022 50.2501 49.9022H45.0746C44.5011 49.9022 44.0476 50.3557 44.0476 50.9293V58.2121C44.0476 58.7856 44.5011 59.2391 45.0746 59.2391H50.3166C50.8235 59.2391 51.2369 58.8389 51.2369 58.332C51.237 57.8252 50.8235 57.4117 50.3166 57.4117Z" fill="#B06345"/>
<path d="M60.9349 49.8223C60.3747 49.8223 59.9212 50.2757 59.9212 50.8358V55.6511L55.9596 50.4491C55.6795 50.089 55.386 49.8488 54.8925 49.8488H54.679C54.1055 49.8488 53.652 50.3023 53.652 50.8759V58.3053C53.652 58.8655 54.1055 59.319 54.6657 59.319C55.2259 59.3192 55.6793 58.8657 55.6793 58.3053V53.3034L59.7877 58.6922C60.0678 59.0523 60.3612 59.2924 60.8548 59.2924H60.9214C61.495 59.2924 61.9485 58.839 61.9485 58.2654V50.8358C61.9488 50.2759 61.4951 49.8223 60.9349 49.8223Z" fill="#B06345"/>
<path d="M73.4856 37.5449C71.7945 37.5449 70.4188 38.9206 70.4188 40.6118C70.4188 42.3029 71.7945 43.6787 73.4856 43.6787C75.1768 43.6787 76.5525 42.3029 76.5525 40.6118C76.5525 38.9208 75.1768 37.5449 73.4856 37.5449ZM73.4856 41.352C73.0774 41.352 72.7454 41.02 72.7454 40.6118C72.7454 40.2036 73.0774 39.8715 73.4856 39.8715C73.8938 39.8715 74.2259 40.2036 74.2259 40.6118C74.2259 41.02 73.8938 41.352 73.4856 41.352Z" fill="#B06345"/>
<path d="M10.6694 64.9978C8.97826 64.9978 7.60254 66.3735 7.60254 68.0647C7.60254 69.7558 8.97826 71.1315 10.6694 71.1315C12.3606 71.1315 13.7363 69.7558 13.7363 68.0647C13.7361 66.3737 12.3604 64.9978 10.6694 64.9978ZM10.6694 68.8049C10.2612 68.8049 9.92915 68.4729 9.92915 68.0647C9.92915 67.6565 10.2612 67.3244 10.6694 67.3244C11.0776 67.3244 11.4097 67.6565 11.4097 68.0647C11.4097 68.4729 11.0776 68.8049 10.6694 68.8049Z" fill="#B06345"/>
<path d="M73.4856 64.9978C71.7945 64.9978 70.4188 66.3735 70.4188 68.0647C70.4188 69.7558 71.7945 71.1315 73.4856 71.1315C75.1768 71.1315 76.5525 69.7558 76.5525 68.0647C76.5525 66.3737 75.1768 64.9978 73.4856 64.9978ZM73.4856 68.8049C73.0774 68.8049 72.7454 68.4729 72.7454 68.0647C72.7454 67.6565 73.0774 67.3244 73.4856 67.3244C73.8938 67.3244 74.2259 67.6565 74.2259 68.0647C74.2259 68.4729 73.8938 68.8049 73.4856 68.8049Z" fill="#B06345"/>
<path d="M74.5571 53.0897H73.0205V48.2963C73.0205 47.1297 72.2777 46.096 71.1724 45.7239C69.808 45.2645 68.7101 44.1787 68.2359 42.8193C67.856 41.7306 66.8262 40.9993 65.6731 40.9993H18.327C17.1739 40.9993 16.1441 41.7308 15.7642 42.8194C15.29 44.1787 14.1923 45.2645 12.8278 45.724C11.7223 46.096 10.9795 47.1297 10.9795 48.2963V53.0897H9.44285C8.80041 53.0897 8.27954 53.6105 8.27954 54.253C8.27954 54.8954 8.80041 55.4163 9.44285 55.4163H10.9795V60.8454C10.9795 62.012 11.7223 63.0457 12.8277 63.4178C14.1921 63.8772 15.29 64.963 15.7642 66.3224C16.1441 67.4111 17.1739 68.1424 18.327 68.1424H24.0081C24.6506 68.1424 25.1714 67.6216 25.1714 66.9791C25.1714 66.3367 24.6506 65.8158 24.0081 65.8158H18.327C18.1622 65.8158 18.0151 65.7113 17.9609 65.5559C17.2519 63.5235 15.6104 61.8999 13.57 61.2129C13.4121 61.1598 13.3061 61.0121 13.3061 60.8455V48.2966C13.3061 48.1301 13.4122 47.9824 13.5702 47.9292C15.6104 47.2423 17.2517 45.6186 17.9608 43.5864C18.0151 43.4308 18.1622 43.3263 18.327 43.3263H65.673C65.8377 43.3263 65.9848 43.4308 66.039 43.5862C66.7481 45.6186 68.3895 47.2423 70.4299 47.9292C70.5879 47.9824 70.6939 48.1301 70.6939 48.2966V60.8455C70.6939 61.0121 70.5877 61.1598 70.4298 61.2129C68.3895 61.8999 66.7482 63.5235 66.0392 65.5557C65.9848 65.7113 65.8377 65.8158 65.673 65.8158H29.5918C28.9493 65.8158 28.4285 66.3367 28.4285 66.9791C28.4285 67.6216 28.9493 68.1424 29.5918 68.1424H65.673C66.826 68.1424 67.8559 67.4109 68.2357 66.3223C68.71 64.963 69.8077 63.8772 71.1721 63.4177C72.2777 63.0457 73.0205 62.012 73.0205 60.8454V55.4163H74.5573C75.1997 55.4163 75.7206 54.8954 75.7206 54.253C75.7206 53.6105 75.1995 53.0897 74.5571 53.0897Z" fill="#B06345"/>
<path d="M10.6694 37.5449C8.97826 37.5449 7.60254 38.9206 7.60254 40.6118C7.60269 42.3029 8.97841 43.6787 10.6694 43.6787C12.3606 43.6787 13.7363 42.3029 13.7363 40.6118C13.7363 38.9206 12.3604 37.5449 10.6694 37.5449ZM10.6694 41.352C10.2612 41.352 9.92915 41.02 9.92915 40.6118C9.9293 40.2036 10.2614 39.8715 10.6694 39.8715C11.0776 39.8715 11.4097 40.2036 11.4097 40.6118C11.4097 41.02 11.0776 41.352 10.6694 41.352Z" fill="#B06345"/>
<path d="M76.5102 34.0198H67.0363L46.8831 13.8666C46.8837 13.8323 46.8857 13.7982 46.8857 13.7637C46.8857 11.0697 44.6939 8.87805 42.0001 8.87805C39.3062 8.87805 37.1144 11.0697 37.1144 13.7637C37.1144 13.7983 37.1163 13.8323 37.1171 13.8667L16.9635 34.0198H7.48965C5.5653 34.0198 3.99988 35.5853 3.99988 37.5096V71.6322C3.99988 73.5565 5.5653 75.1219 7.48965 75.1219H76.5102C78.4345 75.1219 80 73.5565 80 71.6322V37.5096C80 35.5854 78.4345 34.0198 76.5102 34.0198ZM41.9999 11.2047C43.411 11.2047 44.5591 12.3527 44.5591 13.7639C44.5591 15.1749 43.4111 16.3231 41.9999 16.3231C40.5889 16.3231 39.4407 15.1751 39.4407 13.7639C39.4407 12.3527 40.5889 11.2047 41.9999 11.2047ZM77.6735 71.6322C77.6735 72.2737 77.1517 72.7955 76.5102 72.7955H7.48965C6.8481 72.7955 6.32634 72.2737 6.32634 71.6322V37.5096C6.32634 36.868 6.8481 36.3463 7.48965 36.3463H55.3387C55.9811 36.3463 56.502 35.8254 56.502 35.183C56.502 34.5406 55.9811 34.0197 55.3387 34.0197H20.2537L37.8834 16.3903C38.7524 17.7475 40.2721 18.6496 41.9999 18.6496C43.7276 18.6496 45.2474 17.7475 46.1164 16.3903L63.746 34.02H59.9917C59.3493 34.02 58.8284 34.5408 58.8284 35.1833C58.8284 35.8257 59.3493 36.3466 59.9917 36.3466H76.5102C77.1517 36.3466 77.6735 36.8683 77.6735 37.5099V71.6322Z" fill="#B06345"/>
</svg>
