<svg width="84" height="84" viewBox="0 0 84 84" fill="none" xmlns="http://www.w3.org/2000/svg">
<g clip-path="url(#clip0)">
<path d="M42 77.7C65.5508 77.7 84 70.0126 84 60.2C84 54.9262 78.7066 50.12 69.4036 46.8454C69.7085 46.2064 69.8691 45.5081 69.874 44.8C69.8376 43.4976 69.3274 42.2531 68.439 41.3C70.3481 39.3639 70.3531 36.2549 68.4502 34.3126C69.3415 33.3573 69.8486 32.1064 69.874 30.8C69.874 27.188 65.8308 24.1682 58.478 22.2418C58.2183 20.5497 57.452 18.9761 56.28 17.7282C55.0008 16.5377 53.3893 15.7652 51.66 15.5134C54.4348 13.0564 55.7424 12.7134 55.881 12.6896C56.3812 12.6714 56.8336 12.3877 57.0679 11.9454C57.3022 11.5031 57.2827 10.9694 57.0168 10.5454C56.7509 10.1213 56.279 9.87137 55.7788 9.88962C55.2426 9.88962 53.3778 10.206 49.6062 13.5954C49.3726 11.8087 48.5898 10.1386 47.3662 8.81582C45.5874 7.24226 43.2898 6.38166 40.915 6.39942C40.1369 6.35891 39.3789 6.65525 38.8346 7.21282C38.2857 7.76353 37.9906 8.51766 38.0198 9.29462C38.0598 10.8549 38.42 12.3902 39.0782 13.8054C37.5385 14.2674 36.1373 15.1039 35 16.24C33.6788 17.6525 32.5799 19.2575 31.7408 21C23.086 22.2334 14.126 25.4114 14.126 30.8C14.1514 32.1064 14.6585 33.3573 15.5498 34.3126C13.6469 36.2549 13.6519 39.3639 15.561 41.3C14.6726 42.2531 14.1624 43.4976 14.126 44.8C14.1309 45.5081 14.2915 46.2064 14.5964 46.8454C5.2934 50.12 0 54.9262 0 60.2C0 70.0126 18.4492 77.7 42 77.7ZM67.074 58.8C67.074 62.44 56.3514 66.5 42 66.5C27.6486 66.5 16.926 62.44 16.926 58.8C16.9725 58.1666 17.2441 57.5706 17.6918 57.12C19.4558 58.256 21.3705 59.1387 23.38 59.7422C23.5158 59.7855 23.6574 59.8082 23.8 59.8094C24.4895 59.8074 25.0749 59.3036 25.1796 58.622C25.2843 57.9404 24.8771 57.2841 24.22 57.0752C22.1325 56.4858 20.1714 55.5167 18.4352 54.2164C17.6151 53.6587 17.0674 52.7817 16.926 51.8C16.9737 51.1699 17.2442 50.5773 17.689 50.1284C22.4574 53.2938 31.7576 55.3 42 55.3C44.422 55.3 46.8216 55.1894 49.1316 54.9724C49.9017 54.8997 50.4671 54.2165 50.3944 53.4464C50.3217 52.6763 49.6385 52.1109 48.8684 52.1836C46.6452 52.3936 44.3352 52.5 42 52.5C31.7422 52.5 22.2754 50.3776 18.4422 47.2164C18.2423 47.0516 18.052 46.8753 17.8724 46.6886L17.8612 46.6746C17.3238 46.1903 16.9897 45.5206 16.926 44.8C16.9727 44.1703 17.2428 43.578 17.6876 43.1298C20.3341 44.7487 23.2344 45.9101 26.2668 46.5654C26.3758 46.5925 26.4877 46.6061 26.6 46.606C27.3074 46.6046 27.9026 46.0756 27.9871 45.3732C28.0715 44.6708 27.6187 44.0158 26.9318 43.8466C23.8766 43.2508 20.9825 42.0135 18.4408 40.2164C17.6186 39.6598 17.0687 38.7827 16.926 37.8C16.9726 37.1717 17.2416 36.5805 17.6848 36.1326C22.7836 39.515 32.5948 41.3 42 41.3C51.4052 41.3 61.2164 39.515 66.3152 36.1326C66.7584 36.5805 67.0274 37.1717 67.074 37.8C66.9301 38.7851 66.3776 39.6639 65.5522 40.2206C61.7246 43.3776 52.2578 45.5 42 45.5C39.6648 45.5 37.3548 45.3936 35.1316 45.1836C34.3615 45.1109 33.6783 45.6763 33.6056 46.4464C33.5329 47.2165 34.0983 47.8997 34.8684 47.9724C37.1784 48.1894 39.578 48.3 42 48.3C52.2452 48.3 61.5482 46.2924 66.311 43.1284C66.7558 43.5773 67.0263 44.1699 67.074 44.8C67.0109 45.5201 66.6772 46.1894 66.1402 46.6732L66.1262 46.69C65.9456 46.8772 65.7544 47.0539 65.5536 47.2192C62.6024 49.2371 59.2406 50.5758 55.7102 51.1392C54.9536 51.2993 54.47 52.0424 54.6301 52.7989C54.7901 53.5555 55.5332 54.0391 56.2898 53.879C59.8324 53.2509 63.2299 51.9788 66.3138 50.1256C66.7582 50.5756 67.0277 51.1693 67.074 51.8C66.9301 52.7851 66.3776 53.6639 65.5522 54.2206C61.7246 57.3776 52.2578 59.5 42 59.5C37.844 59.5174 33.6952 59.1533 29.6058 58.4122C29.24 58.3396 28.8603 58.4174 28.5525 58.6282C28.2448 58.8389 28.035 59.1648 27.9706 59.5322C27.9015 59.8978 27.9807 60.2759 28.1909 60.583C28.401 60.8901 28.7248 61.1009 29.0906 61.1688C33.3501 61.94 37.6713 62.3186 42 62.3C52.2452 62.3 61.5482 60.2924 66.311 57.1284C66.7558 57.5773 67.0263 58.1699 67.074 58.8ZM55.9006 24.276C54.2375 24.2953 52.6205 23.7305 51.331 22.68C50.2722 21.3962 49.7053 19.7771 49.7322 18.1132C51.3969 18.0853 53.017 18.6517 54.3018 19.7106C55.3519 20.9988 55.9176 22.6141 55.9006 24.276ZM45.3922 10.7982C46.4502 12.0819 47.0165 13.7004 46.9896 15.3636C45.3468 15.3843 43.7478 14.8335 42.4662 13.8054C42.4424 13.7793 42.4172 13.7545 42.3906 13.7312C41.3659 12.4431 40.8087 10.8454 40.81 9.19942C42.4775 9.17957 44.099 9.74536 45.3922 10.7982ZM36.9768 18.2182C38.0775 17.1262 39.5133 16.4359 41.0536 16.2582C42.7735 17.477 44.8257 18.1391 46.9336 18.1552C46.9436 20.2719 47.6049 22.3341 48.8278 24.0618C48.6454 25.5938 47.9554 27.0206 46.8678 28.1148C44.7348 29.9833 42.2296 31.3781 39.5178 32.207C36.4798 33.1646 34.0508 33.1142 33.0092 32.0754C30.6124 29.68 33.8632 21.3388 36.9768 18.2224V18.2182ZM30.4528 24.0254C29.1326 27.832 28.8414 31.8654 31.038 34.0578C32.3075 35.2107 33.9883 35.8027 35.7 35.7C37.2906 35.6672 38.8671 35.394 40.376 34.8894C43.5211 33.9347 46.4176 32.2996 48.86 30.1C49.9985 28.9616 50.8356 27.5576 51.296 26.0148C52.7111 26.6731 54.2465 27.0334 55.8068 27.0732H55.916C57.1196 27.0806 58.188 26.3039 58.5522 25.1566C64.8004 26.9262 67.0782 29.253 67.0782 30.7958C67.0782 34.4358 56.3556 38.4958 42.0042 38.4958C27.6528 38.4958 16.9302 34.4358 16.9302 30.7958C16.926 28.5404 21.6552 25.543 30.4528 24.0296V24.0254ZM14.56 49.84C14.2784 50.4554 14.1295 51.1233 14.1232 51.8C14.1608 53.1027 14.672 54.3471 15.561 55.3C14.6724 56.253 14.1621 57.4975 14.126 58.8C14.126 65.6208 28.4872 69.3 42 69.3C55.5128 69.3 69.874 65.6208 69.874 58.8C69.8376 57.4976 69.3274 56.2531 68.439 55.3C69.3274 54.3469 69.8376 53.1025 69.874 51.8C69.8677 51.1233 69.7188 50.4554 69.4372 49.84C76.8572 52.6218 81.1972 56.4018 81.1972 60.2C81.2 67.2994 65.4486 74.9 42 74.9C18.5514 74.9 2.8 67.2994 2.8 60.2C2.8 56.4018 7.1498 52.6218 14.56 49.84Z" fill="#B06345"/>
<path d="M73.43 62.3336C73.0121 62.6087 72.7727 63.0858 72.802 63.5853C72.8313 64.0847 73.1249 64.5306 73.572 64.755C74.0192 64.9793 74.5521 64.9481 74.97 64.673L75.0876 64.5932C76.4899 63.5944 77.3175 61.9748 77.3052 60.2532C77.3168 58.4927 76.4773 56.835 75.0512 55.8026L75.0022 55.769C74.7018 55.5602 74.3303 55.4804 73.9707 55.5475C73.6111 55.6146 73.2933 55.8229 73.0884 56.126C72.6542 56.7695 72.8105 57.6417 73.4412 58.0944C74.1209 58.5973 74.5169 59.3966 74.5052 60.242C74.5141 61.0739 74.1117 61.8566 73.43 62.3336Z" fill="#B06345"/>
<path d="M8.95159 64.6185C8.95999 64.6269 9.01879 64.6661 9.02999 64.6731C9.24731 64.8179 9.50249 64.8953 9.76359 64.8957C10.2287 64.8908 10.6609 64.6553 10.9172 64.2671C11.3364 63.6168 11.1671 62.7514 10.5336 62.3071C9.86988 61.8268 9.48216 61.0529 9.49479 60.2337C9.48834 59.3705 9.90122 58.5578 10.6022 58.0539L9.79999 56.9101L8.92079 55.8181C7.509 56.8502 6.68048 58.4989 6.69479 60.2477C6.6838 61.9868 7.52733 63.6205 8.95159 64.6185Z" fill="#B06345"/>
<path d="M36.4 30.1001C37.1732 30.1001 37.8 29.4733 37.8 28.7001C37.8 27.9269 37.1732 27.3 36.4 27.3C35.6268 27.3 35 27.9269 35 28.7001C35 29.4733 35.6268 30.1001 36.4 30.1001Z" fill="#B06345"/>
<path d="M37.8 24.5001C38.5732 24.5001 39.2 23.8733 39.2 23.1001C39.2 22.3269 38.5732 21.7001 37.8 21.7001C37.0268 21.7001 36.4 22.3269 36.4 23.1001C36.4 23.8733 37.0268 24.5001 37.8 24.5001Z" fill="#B06345"/>
<path d="M42 28.7C42.7732 28.7 43.4 28.0732 43.4 27.3C43.4 26.5268 42.7732 25.9 42 25.9C41.2268 25.9 40.6 26.5268 40.6 27.3C40.6 28.0732 41.2268 28.7 42 28.7Z" fill="#B06345"/>
<path d="M43.4 23.1001C44.1732 23.1001 44.8 22.4733 44.8 21.7001C44.8 20.9269 44.1732 20.3 43.4 20.3C42.6268 20.3 42 20.9269 42 21.7001C42 22.4733 42.6268 23.1001 43.4 23.1001Z" fill="#B06345"/>
</g>
<defs>
<clipPath id="clip0">
<rect width="84" height="84" fill="white"/>
</clipPath>
</defs>
</svg>
