<svg width="84" height="84" viewBox="0 0 84 84" fill="none" xmlns="http://www.w3.org/2000/svg">
<g clip-path="url(#clip0)">
<path d="M75.5005 41.8512L73.2596 33.5154L75.4862 25.1763C75.5996 24.7515 75.4778 24.2986 75.1668 23.988L69.0574 17.8898L66.8167 9.55396C66.7025 9.12936 66.3704 8.79796 65.9457 8.68459L57.6067 6.45794L51.4972 0.359582C51.186 0.0490127 50.7328 -0.0722293 50.3086 0.0422862L41.9726 2.28305L33.6336 0.0565596C33.2092 -0.0566433 32.756 0.0647627 32.4453 0.376153L26.3473 6.48534L18.0113 8.72626C17.5867 8.84029 17.2554 9.17235 17.1419 9.59711L14.9153 17.9362L8.81707 24.0456C8.50634 24.3566 8.38543 24.8098 8.49945 25.2344L10.7404 33.5687L9.36028 38.738C9.18506 39.3946 9.5752 40.0689 10.2318 40.2443C10.8884 40.42 11.5627 40.0293 11.738 39.3728L13.2033 33.8849C13.2591 33.6762 13.2589 33.4565 13.2028 33.248L11.0606 25.2813L16.8898 19.4415C17.0425 19.2886 17.1521 19.0983 17.2077 18.8898L19.3364 10.9183L27.3046 8.7763C27.5131 8.72019 27.7034 8.61027 27.856 8.45736L33.6851 2.61757L41.6562 4.74595C41.8648 4.80173 42.0845 4.8014 42.2931 4.74546L50.2615 2.60346L56.1013 8.43276C56.2542 8.58533 56.4445 8.69493 56.653 8.75071L64.6243 10.8791L66.7663 18.8473C66.8224 19.0558 66.9325 19.2461 67.0852 19.3987L72.9252 25.228L70.7966 33.1991C70.7409 33.4078 70.741 33.6275 70.7971 33.836L72.9393 41.8043L67.11 47.6443C66.9574 47.7972 66.8478 47.9875 66.7921 48.196L64.6635 56.1671L56.6957 58.309C56.487 58.3651 56.2965 58.4752 56.1439 58.6281L50.3148 64.4679L42.3443 62.3382C42.1351 62.2822 41.9153 62.2824 41.7063 62.3387L33.7384 64.4821L27.8987 58.6529C27.7456 58.5003 27.5553 58.3905 27.3467 58.3349L25.6792 57.8893C25.6781 57.889 25.6771 57.8885 25.6759 57.8883C25.6748 57.888 25.6736 57.8878 25.6725 57.8875L19.3758 56.205L17.2336 48.2383C17.1774 48.0297 17.0674 47.8395 16.9145 47.6869L12.7654 43.546C12.2842 43.066 11.5051 43.0668 11.0254 43.5478C10.5453 44.0288 10.5461 44.8078 11.0272 45.2878L14.9428 49.1958L17.1836 57.5298C17.2978 57.9543 17.6297 58.2857 18.0543 58.399L23.8503 59.9478L18.8829 78.4822C18.7665 78.9165 18.8964 79.38 19.2216 79.6906C19.5467 80.0011 20.0155 80.1099 20.4442 79.9734L28.3687 77.4544L33.9716 83.5985C34.2077 83.8574 34.5392 83.9998 34.8808 83.9998C34.9776 83.9998 35.0754 83.9883 35.1717 83.9649C35.6088 83.8585 35.953 83.5222 36.0693 83.0878L40.8873 65.1071L42.0274 64.8004L43.1069 65.0888L47.9302 83.0878C48.0465 83.5221 48.3907 83.8584 48.8277 83.9649C48.9242 83.9883 49.0218 83.9998 49.1186 83.9998C49.4602 83.9998 49.7918 83.8574 50.0279 83.5985L55.6311 77.4542L63.5558 79.9734C63.9845 80.1099 64.4533 80.0011 64.7784 79.6906C65.1035 79.38 65.2335 78.9167 65.117 78.4822L63.122 71.0371C62.9463 70.3808 62.2713 69.9914 61.6149 70.1671C60.9585 70.3429 60.569 71.0177 60.7449 71.6741L62.1576 76.9468L55.6257 74.8702C55.1681 74.7247 54.6674 74.8587 54.3437 75.2138L49.725 80.2785L45.851 65.8224L50.3661 67.0287C50.7904 67.1421 51.2439 67.0205 51.5546 66.7091L57.6526 60.5999L57.7693 60.5686L59.3079 66.3124C59.455 66.8624 59.9523 67.2249 60.4955 67.2249C60.601 67.2249 60.7081 67.2113 60.8146 67.1828C61.471 67.0069 61.8607 66.3323 61.6848 65.6759L60.1456 59.9299L65.9885 58.3592C66.4131 58.245 66.7443 57.9131 66.8578 57.4883L69.0845 49.1492L75.1829 43.0399C75.4936 42.7288 75.6145 42.2757 75.5005 41.8512ZM34.2744 80.2784L29.6562 75.2139C29.3324 74.8591 28.832 74.725 28.3743 74.8704L21.8423 76.9466L26.2278 60.5829L26.3937 60.6272L32.5029 66.7254C32.7367 66.9587 33.0505 67.085 33.3723 67.085C33.4787 67.085 33.5862 67.0712 33.6917 67.0428L38.1419 65.8458L34.2744 80.2784Z" fill="#B06345"/>
<path d="M42.0002 10.2245C45.421 10.2245 48.7156 10.9478 51.7922 12.3744C52.4093 12.6605 53.1403 12.3921 53.4261 11.7757C53.7121 11.1592 53.444 10.4276 52.8276 10.1418C49.424 8.56368 45.7813 7.76355 42.0003 7.76355C30.3578 7.76355 20.1292 15.5985 17.1068 26.8229C17.1057 26.8266 17.1047 26.8306 17.1035 26.8345C17.1001 26.8473 17.0963 26.8599 17.0929 26.8726C16.5145 29.0375 16.2212 31.2817 16.2212 33.5427C16.2212 39.4381 18.1576 44.9856 21.8208 49.5846C21.8233 49.5877 21.8259 49.5906 21.8282 49.5936C21.8318 49.598 21.8354 49.6026 21.8392 49.607C26.762 55.7812 34.1086 59.3218 42.0002 59.3218C56.2149 59.3218 67.7793 47.7574 67.7793 33.5427C67.7793 25.8524 64.3822 18.6204 58.4592 13.701C57.9365 13.2669 57.1607 13.3386 56.7264 13.8614C56.2921 14.3843 56.364 15.16 56.8869 15.5943C62.2451 20.0446 65.3184 26.5866 65.3184 33.5429C65.3184 46.4006 54.8579 56.8611 42.0002 56.8611C35.752 56.8611 29.8814 54.4072 25.5275 50.0492H32.9956C33.6753 50.0492 34.2261 49.4983 34.2261 48.8187V47.424C35.3327 47.5732 36.1886 47.8575 37.0072 48.485C37.7626 49.0642 38.6955 49.3831 39.6337 49.3831H53.138C55.2049 49.3831 56.8864 47.7016 56.8864 45.6348C56.8864 44.9101 56.6797 44.2327 56.3222 43.6586C57.2806 42.9789 57.9072 41.8608 57.9072 40.5992C57.9072 39.8353 57.6775 39.1241 57.2836 38.5308C58.1713 37.8447 58.7441 36.7698 58.7441 35.5636C58.7441 34.8032 58.5163 34.0948 58.1255 33.5033C59.0192 32.8177 59.5965 31.739 59.5965 30.528C59.5965 28.4612 57.915 26.7797 55.8482 26.7797H48.345C49.2417 23.5181 49.0918 20.1099 47.8985 16.199C47.4541 14.7421 46.1273 13.7633 44.5968 13.7633C43.6539 13.7633 42.7407 14.1556 42.0914 14.8394C41.442 15.5234 41.0975 16.4559 41.1464 17.3978C41.3716 21.7327 39.4455 23.1702 36.5298 25.346C35.7975 25.8925 35.0141 26.4778 34.2239 27.1505C34.2023 26.49 33.6614 25.9607 32.9954 25.9607H19.9426C23.1474 16.6187 31.9965 10.2245 42.0002 10.2245ZM38.0016 27.318C41.0335 25.0552 43.8975 22.9182 43.604 17.27C43.5898 16.995 43.6862 16.7335 43.8759 16.5337C44.0654 16.334 44.3213 16.2241 44.5966 16.2241C45.0304 16.2241 45.4202 16.5089 45.5444 16.9169C46.7736 20.9455 46.7576 24.3281 45.4942 27.5624C45.3464 27.9411 45.3951 28.3683 45.6243 28.704C45.8535 29.0397 46.234 29.2405 46.6403 29.2405H55.8479C56.5578 29.2405 57.1353 29.818 57.1353 30.5279C57.1353 31.2378 56.5578 31.8153 55.8479 31.8153H52.7157C52.036 31.8153 51.4853 32.3662 51.4853 33.0457C51.4853 33.7253 52.036 34.2762 52.7157 34.2762H54.9954C55.7051 34.2762 56.2828 34.8537 56.2828 35.5634C56.2828 36.2733 55.7051 36.8508 54.9954 36.8508H52.7157C52.036 36.8508 51.4853 37.4018 51.4853 38.0813C51.4853 38.7609 52.036 39.3118 52.7157 39.3118H54.1583C54.8682 39.3118 55.4457 39.8893 55.4457 40.5992C55.4457 41.3091 54.8682 41.8866 54.1583 41.8866H51.8785C51.1988 41.8866 50.6481 42.4375 50.6481 43.1171C50.6481 43.7966 51.1988 44.3475 51.8785 44.3475H53.1375C53.8474 44.3475 54.4249 44.925 54.4249 45.6349C54.4249 46.3448 53.8474 46.9223 53.1375 46.9223H39.6332C39.2333 46.9223 38.8321 46.7837 38.504 46.5322C37.1104 45.4635 35.6496 45.1014 34.2256 44.9436V30.5399C35.4377 29.2326 36.7393 28.2602 38.0016 27.318ZM31.7651 30.3489C31.7651 30.35 31.765 30.351 31.765 30.352V46.3625C31.765 46.3637 31.7651 46.3647 31.7651 46.3657V47.5879H23.3866C20.307 43.5216 18.682 38.6785 18.682 33.5425C18.682 31.8125 18.8738 30.0943 19.2485 28.4213H31.7651V30.3489Z" fill="#B06345"/>
</g>
<defs>
<clipPath id="clip0">
<rect width="84" height="84" fill="white"/>
</clipPath>
</defs>
</svg>
