<svg width="60" height="59" viewBox="0 0 60 59" fill="none" xmlns="http://www.w3.org/2000/svg">
<rect x="12.7289" width="48" height="48" rx="6" transform="rotate(15 12.7289 0)" fill="#F5F4F6"/>
<path d="M18.6754 33.139L18.8066 33.0737L27.7981 27.8832L30.5149 32.5875C30.8122 33.1025 31.4431 33.3051 31.9773 33.0798L32.1086 33.0145L38.2423 29.4739L39.3091 31.3204C39.8062 32.1814 41.0617 32.0564 41.4053 31.1653L41.4464 31.039L42.6702 26.4639L42.6865 26.3625L42.6942 26.221L42.6899 26.1283L42.6765 26.0262L42.6469 25.9005L42.6006 25.7718L42.5377 25.646C42.5085 25.5955 42.4761 25.548 42.4408 25.5035L42.3371 25.3892L42.2262 25.2949L42.1182 25.2232L41.9932 25.1598L41.9286 25.1339L41.8293 25.1025L37.3216 23.8947C36.3613 23.6374 35.5619 24.6135 35.9491 25.4866L36.0093 25.6049L37.075 27.4521L31.9525 30.4095L29.2358 25.7053C28.9384 25.1902 28.3075 24.9877 27.7733 25.213L27.6421 25.2783L17.64 31.053C17.082 31.3752 16.8908 32.0887 17.2129 32.6467C17.5103 33.1618 18.1412 33.3643 18.6754 33.139Z" fill="#736C7D"/>
</svg>
