<svg width="162" height="54" viewBox="0 0 162 54" fill="none" xmlns="http://www.w3.org/2000/svg">
<path d="M36.375 0.96875C36.6042 0.96875 37.0312 1.45833 37.6562 2.4375V2.78125C31.4896 3.51042 28.4062 4.36458 28.4062 5.34375C22.2604 17.5729 18.3229 25.6979 16.5938 29.7188C14.0104 35.9479 12.7188 41.2396 12.7188 45.5938C13.8646 45.1979 15.0104 44.5833 16.1562 43.75C20.8854 41.5 24.5521 40.375 27.1562 40.375L28.6562 39.2812H29.0312C29.3021 39.2812 29.6042 39.8958 29.9375 41.125C29.9375 41.6458 27.1667 42.3854 21.625 43.3438C19.875 43.9271 16.9062 45.4688 12.7188 47.9688C12.7188 48.2188 11.8021 48.7188 9.96875 49.4688C5.96875 51.9271 3.1875 53.1562 1.625 53.1562C1 53.1562 0.510417 52.6042 0.15625 51.5L0.71875 50.5938L2.5625 50.75C7.72917 49.0208 10.3125 47.4167 10.3125 45.9375C10.625 39.3333 13.6354 30.3542 19.3438 19L26 5.34375L25.625 5.15625L8.28125 9.59375H7.90625C7.30208 8.94792 7 8.52083 7 8.3125C7 7.6875 8.53125 7.19792 11.5938 6.84375C19.2604 4.61458 24.3125 3.3125 26.75 2.9375C26.75 2.64583 28.4688 2.28125 31.9062 1.84375C32.1562 1.73958 33.6458 1.44792 36.375 0.96875ZM36.1562 22.3438C36.6562 22.5104 36.9062 22.8438 36.9062 23.3438L36.2812 24.2188C37.5729 25.6562 38.4896 27.3646 39.0312 29.3438C39.6146 30.1979 39.9062 31.0729 39.9062 31.9688V32.4688C38.9062 34.2188 36.9062 35.0938 33.9062 35.0938C31.9896 35.0938 30.6979 34.4688 30.0312 33.2188L29.9062 32.3438C30.1562 32.2604 30.2812 32.1771 30.2812 32.0938L31.6562 33.3438C32.3646 33.5938 32.8646 33.7188 33.1562 33.7188H34.0312C37.0312 33.4688 38.5312 32.7188 38.5312 31.4688C37.6771 28.4896 36.7188 26.5729 35.6562 25.7188H35.5312C35.2604 25.7188 34.9688 25.8438 34.6562 26.0938H34.4062C33.9896 25.8438 33.6562 25.4271 33.4062 24.8438C33.4062 23.7396 34.3229 22.9062 36.1562 22.3438ZM45.625 27.2812H44.5938C44.1562 27.2812 43.5417 26.9375 42.75 26.25H42.5625C41.5833 27.2708 40.8021 27.7812 40.2188 27.7812H39.875L38.5312 26.5938C38.5312 25.0312 39.2604 23.8542 40.7188 23.0625H41.4062C43.5312 23.2083 44.5938 23.6562 44.5938 24.4062V25.0938H44.7812C44.9688 25.0938 45.25 25.8229 45.625 27.2812ZM52.9375 23.5C53.6042 23.6458 53.9375 23.9375 53.9375 24.375C53.9375 24.5417 52.7292 25.5 50.3125 27.25C48.6667 29.1667 47.4583 30.125 46.6875 30.125C46.125 30.125 45.375 28.7917 44.4375 26.125C44.6042 25.625 44.9375 25.375 45.4375 25.375H45.9375C46.0208 25.375 46.3125 25.7083 46.8125 26.375L46.6875 27V27.5L46.8125 28.125H47.0625C50.0417 25.375 52 23.8333 52.9375 23.5ZM56.3438 23.625H56.8438C57.6979 23.625 58.2812 23.9583 58.5938 24.625C58.5938 25.5208 57.1354 26.2292 54.2188 26.75C53.8854 26.6667 53.5938 26.625 53.3438 26.625C53.1146 26.625 52.9062 26.8333 52.7188 27.25C53.0938 27.5833 53.3021 27.75 53.3438 27.75H54.2188C54.7812 27.75 56.8229 27.25 60.3438 26.25C60.5104 26.3333 60.6354 26.375 60.7188 26.375V26.875C59.6146 27.7917 57.5729 28.5417 54.5938 29.125H54.0938C52.6562 29.125 51.6562 28.4583 51.0938 27.125C51.0938 25.9167 52.8438 24.75 56.3438 23.625ZM71.6875 23.0625H72.3125L72.9375 23.1875V23.6875L73.0625 24.4375C72.7292 24.6667 71.8125 27.25 70.3125 32.1875C69.3958 35.7292 68.9375 39.2708 68.9375 42.8125V43.8125C68.9375 47.6042 69.3125 50.4792 70.0625 52.4375C69.9583 52.8542 69.8333 53.0625 69.6875 53.0625H69.5625C68.6875 53.0625 68.0625 50.1042 67.6875 44.1875V42.0625C67.6875 38.4375 68.5625 33.3542 70.3125 26.8125H70.0625C69.2917 27.3958 68.7083 27.6875 68.3125 27.6875C66.9792 27.0417 66.3125 26 66.3125 24.5625C66.4792 24.1875 66.6458 23.9792 66.8125 23.9375H67.5625C68.0625 24.2292 68.3125 24.5625 68.3125 24.9375C68.3125 24.9792 68.2708 25.1458 68.1875 25.4375C68.2708 25.6042 68.3125 25.7292 68.3125 25.8125H68.6875C69.3125 25.4375 70.3125 24.5208 71.6875 23.0625ZM72.8438 29.875C72.9896 28.6875 73.3646 27.4792 73.9688 26.25L73.8438 26C73.9062 25.6667 73.9896 25.5 74.0938 25.5L73.9688 25.25C73.9688 25.1042 74.4688 24.9375 75.4688 24.75C75.6979 24.3333 76.0729 24.125 76.5938 24.125C77.5938 24.9583 78.4688 25.375 79.2188 25.375L78.5938 27L77.7188 26.5C77.7188 27.6667 77.0104 28.5833 75.5938 29.25C75.0521 29.0833 74.6354 28.875 74.3438 28.625C74.3438 28.8542 73.8438 29.2708 72.8438 29.875ZM80.2188 23.75C80.4688 23.75 80.7188 24 80.9688 24.5C80.9688 24.7083 80.8854 25.25 80.7188 26.125H80.8438C81.1562 26.125 81.6979 25.4583 82.4688 24.125C82.6146 24.0417 82.7812 24 82.9688 24H83.0938C83.5104 24.1667 83.7188 24.4583 83.7188 24.875V25.125C81.9688 27.375 80.8021 28.5 80.2188 28.5C79.4688 28.0833 79.0938 27.5833 79.0938 27V26.5C79.0938 26.0833 79.1771 25.5833 79.3438 25L79.2188 24.25C79.6979 23.9167 80.0312 23.75 80.2188 23.75ZM88.7188 23.3438C89.0521 23.3438 89.3438 23.5521 89.5938 23.9688V24.3438C89.5938 24.4271 88.8438 24.9688 87.3438 25.9688C85.7188 27.8021 84.5521 28.7188 83.8438 28.7188C83.5104 28.7188 83.2188 28.2188 82.9688 27.2188L83.0938 26.5938C83.0104 26.1354 82.9688 25.7604 82.9688 25.4688C83.1354 25.0938 83.3021 24.8854 83.4688 24.8438H83.8438C84.5104 24.8438 84.8438 24.8646 84.8438 24.9062V25.2812H84.9688C87.0312 23.9896 88.2812 23.3438 88.7188 23.3438ZM99.25 23C99.6667 23 99.875 23.1667 99.875 23.5L99.625 25.875H99.75C100.958 25.2083 101.667 24.875 101.875 24.875C102.792 25.0625 103.25 25.6458 103.25 26.625C103.146 27.125 102.938 27.375 102.625 27.375C102.479 27.3542 102.146 27.1458 101.625 26.75C101.354 26.75 100.688 27.125 99.625 27.875C98.625 27.875 98.125 27.25 98.125 26H98C97.8333 26 97.25 26.5417 96.25 27.625H95.75C95.25 27.2917 95 26.9583 95 26.625C95 26.2292 95.5833 25.6875 96.75 25C98.0208 23.6667 98.8542 23 99.25 23ZM102.719 29.875C102.865 28.6875 103.24 27.4792 103.844 26.25L103.719 26C103.781 25.6667 103.865 25.5 103.969 25.5L103.844 25.25C103.844 25.1042 104.344 24.9375 105.344 24.75C105.573 24.3333 105.948 24.125 106.469 24.125C107.469 24.9583 108.344 25.375 109.094 25.375L108.469 27L107.594 26.5C107.594 27.6667 106.885 28.5833 105.469 29.25C104.927 29.0833 104.51 28.875 104.219 28.625C104.219 28.8542 103.719 29.2708 102.719 29.875ZM112.25 23C112.667 23 112.875 23.1667 112.875 23.5L112.625 25.875H112.75C113.958 25.2083 114.667 24.875 114.875 24.875C115.792 25.0625 116.25 25.6458 116.25 26.625C116.146 27.125 115.938 27.375 115.625 27.375C115.479 27.3542 115.146 27.1458 114.625 26.75C114.354 26.75 113.688 27.125 112.625 27.875C111.625 27.875 111.125 27.25 111.125 26H111C110.833 26 110.25 26.5417 109.25 27.625H108.75C108.25 27.2917 108 26.9583 108 26.625C108 26.2292 108.583 25.6875 109.75 25C111.021 23.6667 111.854 23 112.25 23ZM128.25 23.125C128.5 23.3958 128.625 23.6042 128.625 23.75C128.625 24.0417 127.75 24.4583 126 25C124.833 25.8542 124.25 26.5208 124.25 27C124.521 27.1667 124.729 27.25 124.875 27.25C125.125 27.25 126.25 27.125 128.25 26.875H128.625C128.792 26.8958 128.875 26.9792 128.875 27.125C128.875 27.7917 127.583 28.25 125 28.5C124.208 28.5 123.417 27.9583 122.625 26.875V26.75C122.625 26.1875 123.375 25.4375 124.875 24.5C125.979 23.5833 127.104 23.125 128.25 23.125ZM128.531 29.875C128.677 28.6875 129.052 27.4792 129.656 26.25L129.531 26C129.594 25.6667 129.677 25.5 129.781 25.5L129.656 25.25C129.656 25.1042 130.156 24.9375 131.156 24.75C131.385 24.3333 131.76 24.125 132.281 24.125C133.281 24.9583 134.156 25.375 134.906 25.375L134.281 27L133.406 26.5C133.406 27.6667 132.698 28.5833 131.281 29.25C130.74 29.0833 130.323 28.875 130.031 28.625C130.031 28.8542 129.531 29.2708 128.531 29.875ZM145.281 13.5H145.531C145.698 13.5 145.865 13.7917 146.031 14.375C145.99 14.625 144.906 15.5833 142.781 17.25C140.99 19.0833 139.698 20.5833 138.906 21.75C137.406 24.25 136.656 25.6667 136.656 26C138.427 25.5 139.677 25.25 140.406 25.25C140.573 25.5208 140.656 25.7292 140.656 25.875C140.656 26.3333 139.781 26.75 138.031 27.125C136.281 27.5625 135.406 28.1458 135.406 28.875C135.406 30.125 135.156 30.75 134.656 30.75H134.531L133.781 29.75C134.031 28.125 135.031 25.7083 136.781 22.5C138.281 20.2292 139.865 18.3125 141.531 16.75C143.573 14.5833 144.823 13.5 145.281 13.5ZM150.719 13.5H150.969C151.135 13.5 151.302 13.7917 151.469 14.375C151.427 14.625 150.344 15.5833 148.219 17.25C146.427 19.0833 145.135 20.5833 144.344 21.75C142.844 24.25 142.094 25.6667 142.094 26C143.865 25.5 145.115 25.25 145.844 25.25C146.01 25.5208 146.094 25.7292 146.094 25.875C146.094 26.3333 145.219 26.75 143.469 27.125C141.719 27.5625 140.844 28.1458 140.844 28.875C140.844 30.125 140.594 30.75 140.094 30.75H139.969L139.219 29.75C139.469 28.125 140.469 25.7083 142.219 22.5C143.719 20.2292 145.302 18.3125 146.969 16.75C149.01 14.5833 150.26 13.5 150.719 13.5ZM149.906 23.625H150.406C151.26 23.625 151.844 23.9583 152.156 24.625C152.156 25.5208 150.698 26.2292 147.781 26.75C147.448 26.6667 147.156 26.625 146.906 26.625C146.677 26.625 146.469 26.8333 146.281 27.25C146.656 27.5833 146.865 27.75 146.906 27.75H147.781C148.344 27.75 150.385 27.25 153.906 26.25C154.073 26.3333 154.198 26.375 154.281 26.375V26.875C153.177 27.7917 151.135 28.5417 148.156 29.125H147.656C146.219 29.125 145.219 28.4583 144.656 27.125C144.656 25.9167 146.406 24.75 149.906 23.625ZM157.344 23.625H157.844C158.698 23.625 159.281 23.9583 159.594 24.625C159.594 25.5208 158.135 26.2292 155.219 26.75C154.885 26.6667 154.594 26.625 154.344 26.625C154.115 26.625 153.906 26.8333 153.719 27.25C154.094 27.5833 154.302 27.75 154.344 27.75H155.219C155.781 27.75 157.823 27.25 161.344 26.25C161.51 26.3333 161.635 26.375 161.719 26.375V26.875C160.615 27.7917 158.573 28.5417 155.594 29.125H155.094C153.656 29.125 152.656 28.4583 152.094 27.125C152.094 25.9167 153.844 24.75 157.344 23.625Z" fill="#232029"/>
</svg>
